<?xml version="1.0" encoding="UTF-8"?>
<svg version="1.1" xmlns="http://www.w3.org/2000/svg" width="2000" height="2000">
<path d="M0 0 C1.72717414 -0.00115626 3.45434803 -0.00274714 5.18152142 -0.00472724 C9.86358681 -0.00885124 14.54563148 -0.00686171 19.2276969 -0.00374103 C24.30207799 -0.00145853 29.37645577 -0.0049806 34.45083618 -0.00772095 C44.36628371 -0.01214735 54.28172363 -0.01121615 64.19717145 -0.00830831 C72.26193125 -0.00604193 80.32668894 -0.00574709 88.39144897 -0.00683212 C90.11887409 -0.00706197 90.11887409 -0.00706197 91.88119668 -0.00729647 C94.22131737 -0.00761622 96.56143806 -0.00794043 98.90155876 -0.00826906 C120.80022772 -0.01111468 142.69889249 -0.00785124 164.59756076 -0.00246869 C183.35223337 0.00199851 202.10689978 0.00122232 220.86157227 -0.00338745 C242.68653496 -0.00874944 264.51149399 -0.01084008 286.33645725 -0.00777519 C288.66755231 -0.00745667 290.99864737 -0.0071423 293.32974243 -0.00683212 C295.04976857 -0.00660071 295.04976857 -0.00660071 296.80454272 -0.00636462 C304.8514974 -0.00550434 312.89844974 -0.00695179 320.94540405 -0.00931168 C330.76354061 -0.01212793 340.58166918 -0.01133308 350.39980483 -0.00603093 C355.40078403 -0.00341846 360.40174996 -0.00234684 365.40272903 -0.00568008 C369.99450289 -0.0086941 374.58625137 -0.00696672 379.17802298 -0.00170253 C380.82514535 -0.00059986 382.47226994 -0.00112067 384.11939085 -0.00357832 C394.49110718 -0.01784756 404.80516823 0.30442986 415.16086102 0.88678181 C421.6930609 1.2447195 428.23253048 1.37627253 434.77288818 1.49414062 C438.42598929 1.56175291 442.07901253 1.63183212 445.73199463 1.70562744 C449.72084259 1.78596371 453.709713 1.86498738 457.6986084 1.94293213 C487.84063909 2.53444818 517.97931282 3.18186731 548.1105957 4.18948364 C549.34422852 4.22959564 550.57786133 4.26970764 551.84887695 4.31103516 C555.27483087 4.42357686 558.70054268 4.54152016 562.1262207 4.66213989 C563.09690491 4.69437653 564.06758911 4.72661316 565.06768799 4.75982666 C569.11260298 4.91011735 573.10402512 5.12288366 577.12133789 5.62478638 C582.86022978 6.31080001 588.61597093 6.41824217 594.38961792 6.57254028 C596.46803112 6.62818672 598.54626349 6.68854583 600.62451172 6.75003052 C605.03642772 6.8797514 609.44849287 7.00380372 613.8605957 7.12698364 C618.97967555 7.26990141 624.09866335 7.41524087 629.21749878 7.56668091 C631.24958325 7.62557759 633.28175342 7.68009558 635.31396484 7.73440552 C641.2253748 7.90792357 647.05313836 8.16801829 652.921875 8.90408325 C655.95943751 9.2533207 658.9931695 9.32855466 662.0480957 9.40823364 C663.32297852 9.44561646 664.59786133 9.48299927 665.91137695 9.52151489 C667.90403562 9.5747313 669.8966958 9.6279133 671.8894043 9.67922974 C673.8382447 9.73072637 675.78692631 9.78812772 677.7355957 9.84573364 C679.46422852 9.8911731 679.46422852 9.8911731 681.2277832 9.93753052 C683.8605957 10.12698364 683.8605957 10.12698364 684.8605957 11.12698364 C686.86218579 11.30472573 688.86975684 11.41542663 690.87744141 11.50003052 C692.80998528 11.58516907 692.80998528 11.58516907 694.78157043 11.67202759 C695.47464609 11.70031143 696.16772175 11.72859528 696.8817997 11.75773621 C699.04650696 11.84614737 701.21089423 11.94032389 703.37528992 12.03604126 C707.97433742 12.23832543 712.5736931 12.43296804 717.1730957 12.62698364 C722.49165458 12.85189713 727.81005283 13.07992248 733.12819481 13.3144989 C735.25959405 13.4070704 737.39116146 13.49461937 739.52278137 13.5819397 C740.82060043 13.63869873 742.11841949 13.69545776 743.45556641 13.75393677 C744.59838577 13.80199463 745.74120514 13.85005249 746.9186554 13.89956665 C749.39236897 14.09078892 751.48247506 14.48361812 753.8605957 15.12698364 C757.11919956 15.37899167 760.37234882 15.56759138 763.63598633 15.73245239 C768.75818597 16.02457391 768.75818597 16.02457391 769.8605957 17.12698364 C771.22807053 17.32963465 772.60431679 17.4739318 773.98168945 17.59182739 C774.83029541 17.66852661 775.67890137 17.74522583 776.55322266 17.82424927 C777.45903076 17.90352661 778.36483887 17.98280396 779.2980957 18.06448364 C787.43575608 18.82754618 795.26455848 19.79972707 803.1340332 22.07229614 C806.2950631 22.96692724 809.46150548 23.76514207 812.65771484 24.52200317 C818.90572993 26.01002227 824.8145203 27.70108998 830.73168945 30.24417114 C833.71710957 31.48216187 836.73614302 32.31190903 839.8605957 33.12698364 C839.8605957 33.78698364 839.8605957 34.44698364 839.8605957 35.12698364 C840.7268457 35.23010864 841.5930957 35.33323364 842.4855957 35.43948364 C846.05890503 36.16737999 848.66834741 37.39206609 851.8605957 39.12698364 C852.5205957 39.45698364 853.1805957 39.78698364 853.8605957 40.12698364 C856.52726237 41.46031698 859.19392904 42.79365031 861.8605957 44.12698364 C861.8605957 44.78698364 861.8605957 45.44698364 861.8605957 46.12698364 C862.56055664 46.38737427 863.26051758 46.64776489 863.98168945 46.91604614 C867.11855693 48.23548836 869.97838516 49.79695529 872.9230957 51.50198364 C873.94532227 52.08721802 874.96754883 52.67245239 876.02075195 53.27542114 C878.71459732 55.0317935 880.62722659 56.83690789 882.8605957 59.12698364 C885.83109906 61.41104331 888.85712595 63.60739438 891.88793945 65.81057739 C894.80126541 68.08075123 897.29611518 70.47365498 899.8605957 73.12698364 C900.78356445 74.02674927 901.7065332 74.92651489 902.6574707 75.85354614 C909.16555484 82.21958008 915.57442663 88.67829085 920.8605957 96.12698364 C920.8605957 96.78698364 920.8605957 97.44698364 920.8605957 98.12698364 C921.5205957 98.12698364 922.1805957 98.12698364 922.8605957 98.12698364 C927.75970427 104.10330584 931.30984625 111.30184024 934.8605957 118.12698364 C935.37686523 119.11867554 935.37686523 119.11867554 935.90356445 120.13040161 C937.02314573 122.29148809 938.13125476 124.45807364 939.2355957 126.62698364 C939.59379395 127.3218689 939.95199219 128.01675415 940.32104492 128.73269653 C942.8605957 133.77895373 942.8605957 133.77895373 942.8605957 137.12698364 C943.5205957 137.45698364 944.1805957 137.78698364 944.8605957 138.12698364 C945.72626517 140.24404604 946.50322594 142.39769539 947.2355957 144.56448364 C949.02934451 149.80960631 950.96367381 154.95071396 953.16137695 160.04104614 C953.8605957 162.12698364 953.8605957 162.12698364 953.8605957 166.12698364 C954.5205957 166.45698364 955.1805957 166.78698364 955.8605957 167.12698364 C958.72820411 173.15033336 959.46205924 179.54426069 959.8605957 186.12698364 C960.5205957 186.12698364 961.1805957 186.12698364 961.8605957 186.12698364 C962.10293945 187.25233521 962.3452832 188.37768677 962.5949707 189.53713989 C964.23142823 197.05611016 965.92253477 204.52487367 967.9855957 211.93948364 C969.81603927 218.61267554 970.98155609 225.26816136 971.8605957 232.12698364 C972.1905957 232.12698364 972.5205957 232.12698364 972.8605957 232.12698364 C973.41484751 237.42453705 973.96605525 242.72239595 974.51464844 248.02053833 C974.70102088 249.81652018 974.88817277 251.61242134 975.07617188 253.40823364 C976.09666808 263.16145604 977.06138128 272.89038647 977.61669922 282.68313599 C977.5945616 285.07207984 977.5945616 285.07207984 978.8605957 286.12698364 C979.07327312 288.7145589 979.2373812 291.28491558 979.3605957 293.87698364 C979.58575329 299.24646954 979.58575329 299.24646954 980.3548584 304.55667114 C980.86164653 307.13232426 981.08761142 309.58560595 981.23364258 312.20510864 C981.29040161 313.18963013 981.34716064 314.17415161 981.40563965 315.18850708 C981.49162415 316.76680298 981.49162415 316.76680298 981.5793457 318.37698364 C981.64214722 319.46785278 981.70494873 320.55872192 981.76965332 321.68264771 C982.03779346 326.34218674 982.29767496 331.00217822 982.55834961 335.66213989 C982.7500063 339.06725632 982.94582692 342.47211599 983.1418457 345.87698364 C983.2278302 347.45527954 983.2278302 347.45527954 983.31555176 349.06546021 C983.37231079 350.04998169 983.42906982 351.03450317 983.48754883 352.04885864 C983.53560669 352.91091919 983.58366455 353.77297974 983.63317871 354.66116333 C983.86775796 357.20464201 984.34064392 359.62809367 984.8605957 362.12698364 C984.99078413 363.94374971 985.08244352 365.76355909 985.1418457 367.58401489 C985.19791992 369.1299231 985.19791992 369.1299231 985.25512695 370.70706177 C985.28993164 371.77376099 985.32473633 372.84046021 985.3605957 373.93948364 C985.57316042 382.04727181 985.57316042 382.04727181 986.3605957 390.11135864 C987.12325467 395.56648876 987.18415288 401.06534901 987.3605957 406.56448364 C987.4303246 408.72995322 987.50318762 410.89532439 987.5793457 413.06057739 C987.60963867 414.00989136 987.63993164 414.95920532 987.67114258 415.93728638 C987.81575353 418.37200559 988.05476862 420.71238938 988.36450005 423.12601566 C988.97143979 428.53452629 988.99957346 433.89460723 988.98757935 439.33216858 C988.98991933 440.97704934 988.98991933 440.97704934 988.99230659 442.65516001 C988.99628035 446.31236703 988.99314107 449.9695322 988.98999023 453.6267395 C988.99134583 456.25533065 988.99312665 458.88392161 988.99530029 461.51251221 C988.99973616 467.89879894 988.99879155 474.28507389 988.99588765 480.67136108 C988.99362642 485.85944091 988.99332421 491.04751743 988.99441147 496.23559761 C988.99464132 497.3444345 988.99464132 497.3444345 988.99487581 498.47567214 C988.99519554 499.97744588 988.99551975 501.47921961 988.9958484 502.98099334 C988.99869643 517.04514781 988.99542606 531.10929576 988.99004804 545.17344917 C988.98557411 557.24756353 988.98636208 569.32166828 988.9909668 581.39578247 C988.99631332 595.4215368 988.99842864 609.44728543 988.99535453 623.47304064 C988.99503598 624.96705377 988.99472161 626.4610669 988.99441147 627.95508003 C988.99425719 628.69016116 988.99410292 629.42524229 988.99394397 630.1825986 C988.99307953 635.36950029 988.99453998 640.55639836 988.99689102 645.74329948 C988.99998138 652.71428087 988.9977948 659.68524372 988.99199677 666.6562233 C988.99066931 669.22096921 988.99106304 671.78571664 988.99325943 674.35046196 C988.99597126 677.83722378 988.99258945 681.32392622 988.98757935 684.8106842 C988.99092543 686.35106186 988.99092543 686.35106186 988.99433911 687.92255825 C988.99173136 688.85105667 988.98912361 689.7795551 988.98643684 690.73618984 C988.98627449 691.54163437 988.98611214 692.3470789 988.98594487 693.17693084 C988.8605957 695.12698364 988.8605957 695.12698364 987.8605957 697.12698364 C987.71714292 699.2974465 987.63398825 701.47200302 987.5793457 703.64651489 C987.56093628 704.30093063 987.54252686 704.95534637 987.52355957 705.6295929 C987.46479977 707.73279775 987.41216244 709.83609102 987.3605957 711.93948364 C987.13964379 720.70218891 986.82658574 729.42479624 986.09692383 738.16384888 C985.68328229 743.35017882 985.47508728 748.54658998 985.25512695 753.74417114 C985.21774414 754.53307739 985.18036133 755.32198364 985.1418457 756.13479614 C985.09640625 757.18111206 985.09640625 757.18111206 985.05004883 758.24856567 C984.8605957 760.12698364 984.8605957 760.12698364 983.8605957 763.12698364 C983.81530632 765.61506908 983.81292319 768.07836221 983.8605957 770.56448364 C983.97237186 777.71117172 983.97237186 777.71117172 983.38793945 779.88528442 C982.63611714 783.08122538 982.52956289 786.29315049 982.3605957 789.56057739 C982.31999023 790.27552872 982.27938477 790.99048004 982.23754883 791.72709656 C982.10826031 794.00603978 981.98386489 796.2852074 981.8605957 798.56448364 C981.69802723 801.56342742 981.53066862 804.56205096 981.3605957 807.56057739 C981.32514648 808.24405746 981.28969727 808.92753754 981.25317383 809.63172913 C981.04954338 813.22007378 980.61138921 816.61611945 979.8605957 820.12698364 C979.61231884 823.61665289 979.42121859 827.10165764 979.25512695 830.59573364 C978.96361062 836.02396872 978.96361062 836.02396872 977.8605957 837.12698364 C977.5812626 839.67343993 977.3605418 842.20200645 977.17700195 844.75588989 C977.11657211 845.53778183 977.05614227 846.31967377 976.99388123 847.1252594 C976.79929387 849.64635925 976.61058783 852.16784685 976.4230957 854.68948364 C975.53809529 866.55223027 974.46187111 878.33763176 972.8605957 890.12698364 C972.2005957 890.12698364 971.5405957 890.12698364 970.8605957 890.12698364 C970.81161133 890.96100708 970.76262695 891.79503052 970.7121582 892.65432739 C970.20344274 900.31137217 969.4640045 907.54961746 966.91918945 914.81448364 C965.370569 919.66035133 964.40040017 924.60643492 963.3605957 929.58206177 C962.49317923 933.62435805 961.48339315 937.30979613 959.8605957 941.12698364 C959.35621128 942.86988268 958.87764298 944.62042807 958.4230957 946.37698364 C957.09123892 951.36977338 955.54045288 956.24247586 953.8605957 961.12698364 C953.29655061 962.81396783 952.7340154 964.5014577 952.1730957 966.18948364 C951.7355957 967.50198364 951.2980957 968.81448364 950.8605957 970.12698364 C950.2005957 970.12698364 949.5405957 970.12698364 948.8605957 970.12698364 C948.6749707 971.28198364 948.4893457 972.43698364 948.2980957 973.62698364 C945.75334116 985.06935513 939.70307814 996.07540095 933.8605957 1006.12698364 C933.40168945 1006.93135864 932.9427832 1007.73573364 932.4699707 1008.56448364 C926.51023528 1018.78117294 919.93132693 1028.33157628 911.84887695 1036.98635864 C910.24200354 1038.71635202 908.75614445 1040.4614451 907.2980957 1042.31448364 C904.65446188 1045.36483036 901.80352976 1047.91068731 898.7277832 1050.51370239 C896.84689485 1052.08464526 896.84689485 1052.08464526 895.2434082 1053.83401489 C893.8605957 1055.12698364 893.8605957 1055.12698364 891.8605957 1055.12698364 C891.8605957 1055.78698364 891.8605957 1056.44698364 891.8605957 1057.12698364 C889.8059082 1058.82620239 889.8059082 1058.82620239 886.9855957 1060.81448364 C885.98915039 1061.51960083 884.99270508 1062.22471802 883.96606445 1062.95120239 C882.94125977 1063.66921021 881.91645508 1064.38721802 880.8605957 1065.12698364 C879.90797852 1065.81405396 878.95536133 1066.50112427 877.97387695 1067.20901489 C877.09086914 1067.84194458 876.20786133 1068.47487427 875.2980957 1069.12698364 C874.49243164 1069.70448364 873.68676758 1070.28198364 872.85668945 1070.87698364 C870.8605957 1072.12698364 870.8605957 1072.12698364 868.8605957 1072.12698364 C868.8605957 1072.78698364 868.8605957 1073.44698364 868.8605957 1074.12698364 C862.8605957 1077.12698364 862.8605957 1077.12698364 860.96435547 1078.07180786 C857.57506642 1079.76205289 854.19363629 1081.46536099 850.82543945 1083.19729614 C828.59227983 1094.57929423 828.59227983 1094.57929423 820.8605957 1094.12698364 C820.8605957 1094.78698364 820.8605957 1095.44698364 820.8605957 1096.12698364 C819.71461914 1096.39253052 818.56864258 1096.65807739 817.38793945 1096.93167114 C815.85797034 1097.28835106 814.32802361 1097.64512701 812.7980957 1098.00198364 C811.66984375 1098.2630188 811.66984375 1098.2630188 810.51879883 1098.52932739 C807.12376161 1099.32297246 803.7851086 1100.14987161 800.4465332 1101.16213989 C795.85106388 1102.39861149 791.2584958 1103.05038413 786.5480957 1103.68948364 C785.21875 1103.87800903 785.21875 1103.87800903 783.86254883 1104.07034302 C778.50684984 1104.81646884 773.15906267 1105.41268936 767.77001953 1105.8611145 C765.85434433 1105.93229065 765.85434433 1105.93229065 764.8605957 1107.12698364 C761.92390984 1107.41963713 759.003573 1107.65236726 756.05981445 1107.84573364 C755.15423294 1107.90853516 754.24865143 1107.97133667 753.31562805 1108.03604126 C751.3813028 1108.16927667 749.44682178 1108.30026609 747.51220703 1108.42922974 C744.62602659 1108.6217844 741.74037067 1108.82096119 738.85473633 1109.02151489 C721.61227276 1110.20695864 704.40048016 1111.31880959 687.1105957 1111.18948364 C685.91305664 1111.18497192 684.71551758 1111.18046021 683.48168945 1111.17581177 C680.60793159 1111.16431674 677.73429612 1111.14808515 674.8605957 1111.12698364 C674.8605957 1111.78698364 674.8605957 1112.44698364 674.8605957 1113.12698364 C673.56810913 1113.16456787 673.56810913 1113.16456787 672.24951172 1113.20291138 C669.01211141 1113.29880053 665.77483231 1113.3979815 662.53759766 1113.4992981 C661.14408221 1113.54225718 659.7505272 1113.58395419 658.35693359 1113.6242981 C656.33850236 1113.68296079 654.32026333 1113.7463626 652.30200195 1113.81057739 C651.09229736 1113.84723511 649.88259277 1113.88389282 648.63623047 1113.92166138 C645.96035686 1114.06717768 643.39497599 1114.28734294 640.74462891 1114.61550903 C634.60493931 1115.3311674 628.44924662 1115.45050231 622.2746582 1115.62698364 C620.30172035 1115.687416 620.30172035 1115.687416 618.28892517 1115.74906921 C614.75081493 1115.85717285 611.21258217 1115.96059568 607.67430496 1116.06306839 C604.74782067 1116.14852834 601.82143523 1116.2371437 598.89504337 1116.32570362 C584.95626765 1116.74679718 571.01737608 1117.14140663 557.07543945 1117.44338989 C556.05796631 1117.46557587 555.04049316 1117.48776184 553.9921875 1117.51062012 C549.3379256 1117.61053092 544.68366613 1117.7032805 540.02905273 1117.78518677 C538.41170177 1117.8170523 536.79435147 1117.84895104 535.17700195 1117.88088989 C534.45310776 1117.89124771 533.72921356 1117.90160553 532.98338318 1117.91227722 C529.29784369 1117.94340192 529.29784369 1117.94340192 525.8605957 1119.12698364 C524.24527975 1119.24071134 522.62550247 1119.29369216 521.00634766 1119.31643677 C519.99381424 1119.3331543 518.98128082 1119.34987183 517.93806458 1119.36709595 C516.83613266 1119.38067139 515.73420074 1119.39424683 514.59887695 1119.40823364 C513.46089157 1119.42664307 512.32290619 1119.44505249 511.1504364 1119.46401978 C507.49137672 1119.522899 503.83226704 1119.5755442 500.1730957 1119.62698364 C480.98033442 1119.85615951 480.98033442 1119.85615951 461.82080078 1120.88626099 C453.20190714 1121.4101639 444.56030071 1121.4774379 435.92822266 1121.62966919 C432.56509654 1121.6891828 429.20211522 1121.75431513 425.83911133 1121.82034302 C415.26762725 1122.02059773 404.70206161 1122.20411601 394.12858582 1122.06144714 C390.37004098 1121.96365253 390.37004098 1121.96365253 386.8605957 1123.12698364 C384.90917252 1123.22278578 382.95439994 1123.2525341 381.00062656 1123.25282478 C379.74447216 1123.25543253 378.48831775 1123.25804028 377.19409806 1123.26072705 C375.78715918 1123.25856465 374.38022045 1123.25630798 372.97328186 1123.25396729 C371.48876531 1123.25511846 370.00424904 1123.25670596 368.51973337 1123.25869453 C364.42546966 1123.26288841 360.33122911 1123.26079689 356.2369653 1123.25770831 C351.82722063 1123.25545465 347.41748007 1123.25893367 343.00773621 1123.26168823 C334.36286842 1123.2661454 325.7180093 1123.26516967 317.07314117 1123.26227559 C310.04947149 1123.2600212 303.02580425 1123.25970919 296.00213432 1123.26079941 C295.00414143 1123.26095264 294.00614853 1123.26110587 292.97791342 1123.26126375 C290.95077368 1123.26158346 288.92363394 1123.26190768 286.8964942 1123.26223634 C267.86740795 1123.26509101 248.83832651 1123.26180439 229.80924105 1123.25643598 C213.4680398 1123.25196863 197.12684565 1123.25274332 180.78564453 1123.25735474 C161.82822329 1123.2627019 142.87080627 1123.2648156 123.91338438 1123.26174247 C121.89321387 1123.26142391 119.87304336 1123.26110954 117.85287285 1123.26079941 C116.85880526 1123.26064513 115.86473768 1123.26049086 114.84054684 1123.26033191 C107.82275939 1123.25946713 100.80497461 1123.2609288 93.78718758 1123.26327896 C85.23843784 1123.26607876 76.68969728 1123.2653349 68.1409486 1123.25999822 C63.77610857 1123.25736355 59.41128387 1123.25635219 55.04644394 1123.25964737 C51.05499379 1123.26261516 47.06357328 1123.26100938 43.07212584 1123.25566982 C41.62395908 1123.2545477 40.17578985 1123.25513231 38.72762466 1123.25754561 C36.76722013 1123.26056329 34.80680863 1123.2568861 32.84640598 1123.25282478 C31.75503474 1123.25266243 30.66366349 1123.25250008 29.53922039 1123.25233281 C26.8605957 1123.12698364 26.8605957 1123.12698364 23.8605957 1122.12698364 C21.40358288 1122.06367987 18.97285351 1122.05763986 16.5168457 1122.09182739 C4.43654263 1122.17314013 -7.63773698 1121.95801567 -19.71606445 1121.75466919 C-23.63186855 1121.68960885 -27.54773183 1121.6298975 -31.46362305 1121.57034302 C-52.80321498 1121.22619428 -52.80321498 1121.22619428 -62.0144043 1120.62307739 C-70.06174245 1120.09866755 -78.10830608 1119.9606456 -86.1706543 1119.84573364 C-86.83750748 1119.83613554 -87.50436066 1119.82653744 -88.19142151 1119.81664848 C-93.71886319 1119.73840237 -99.24640437 1119.6684102 -104.77398682 1119.60092163 C-108.27209959 1119.5581462 -111.7701657 1119.51365635 -115.26818848 1119.46401978 C-117.87010093 1119.42741148 -120.47207594 1119.3949644 -123.07409668 1119.36709595 C-124.23711304 1119.35037842 -125.40012939 1119.33366089 -126.59838867 1119.31643677 C-127.62331421 1119.30390869 -128.64823975 1119.29138062 -129.70422363 1119.2784729 C-132.1394043 1119.12698364 -132.1394043 1119.12698364 -134.1394043 1118.12698364 C-136.62232942 1117.98052121 -139.08088254 1117.89194549 -141.56616211 1117.84573364 C-142.33446854 1117.82768677 -143.10277496 1117.80963989 -143.8943634 1117.79104614 C-146.46033917 1117.73188195 -149.02640905 1117.67947609 -151.5925293 1117.62698364 C-153.40436772 1117.58640374 -155.21619626 1117.54538006 -157.02801514 1117.50393677 C-161.8401049 1117.394967 -166.65229879 1117.29158533 -171.46453857 1117.18948364 C-176.20388107 1117.08821099 -180.943126 1116.98261458 -185.68237305 1116.87698364 C-186.60948845 1116.85635864 -187.53660385 1116.83573364 -188.49181366 1116.81448364 C-191.29622072 1116.75206613 -194.10062529 1116.68953824 -196.9050293 1116.62698364 C-197.83076248 1116.60635864 -198.75649567 1116.58573364 -199.71028137 1116.56448364 C-205.26845676 1116.44054029 -210.82660971 1116.31564926 -216.38473511 1116.18948364 C-218.22801366 1116.14766196 -220.07129576 1116.10599643 -221.9145813 1116.06448364 C-227.25932323 1115.94380371 -232.60393033 1115.81877569 -237.94841766 1115.68728638 C-239.58480263 1115.6476224 -241.22122164 1115.60933476 -242.85767365 1115.57254028 C-245.11152622 1115.52159498 -247.365198 1115.46554495 -249.61889648 1115.40823364 C-251.51680939 1115.36279419 -251.51680939 1115.36279419 -253.45306396 1115.31643677 C-257.39863446 1115.11366095 -261.22322036 1114.64128535 -265.1394043 1114.12698364 C-267.64705104 1113.9998898 -270.15661909 1113.90654213 -272.66674805 1113.84573364 C-274.04891033 1113.80800331 -275.43107176 1113.77024205 -276.81323242 1113.73245239 C-278.9617202 1113.67849889 -281.11023986 1113.62618541 -283.25878906 1113.57473755 C-285.35323473 1113.52322123 -287.44746629 1113.46597687 -289.54174805 1113.40823364 C-291.40561157 1113.36279419 -291.40561157 1113.36279419 -293.30712891 1113.31643677 C-296.1394043 1113.12698364 -296.1394043 1113.12698364 -297.1394043 1112.12698364 C-299.82687634 1111.93074211 -302.49464648 1111.79510129 -305.1862793 1111.69729614 C-306.90374384 1111.62534493 -308.62119112 1111.55298061 -310.33862305 1111.48025513 C-311.24531738 1111.44326508 -312.15201172 1111.40627502 -313.08618164 1111.36816406 C-327.14189449 1110.78562075 -341.14674711 1110.03862646 -355.1394043 1108.56448364 C-356.96036621 1108.37426636 -356.96036621 1108.37426636 -358.81811523 1108.1802063 C-366.99634314 1107.2700448 -366.99634314 1107.2700448 -368.1394043 1106.12698364 C-369.54472116 1105.92373997 -370.95872246 1105.77977333 -372.3737793 1105.66213989 C-373.69200684 1105.54697021 -373.69200684 1105.54697021 -375.03686523 1105.42947388 C-375.97820312 1105.3502771 -376.91954102 1105.27108032 -377.8894043 1105.18948364 C-401.16108262 1103.10530532 -401.16108262 1103.10530532 -403.1394043 1101.12698364 C-406.13767856 1100.60644992 -409.12930682 1100.13081372 -412.1394043 1099.68948364 C-428.8692337 1097.22307354 -428.8692337 1097.22307354 -436.1394043 1094.12698364 C-437.88230333 1093.62259922 -439.63284873 1093.14403092 -441.3894043 1092.68948364 C-461.67367907 1087.43837701 -480.75600818 1077.71591439 -498.1394043 1066.12698364 C-498.1394043 1065.46698364 -498.1394043 1064.80698364 -498.1394043 1064.12698364 C-498.8406543 1063.87948364 -499.5419043 1063.63198364 -500.2644043 1063.37698364 C-503.53454977 1061.95518126 -506.28052629 1060.25452076 -509.1394043 1058.12698364 C-509.1394043 1057.46698364 -509.1394043 1056.80698364 -509.1394043 1056.12698364 C-509.70401367 1055.87948364 -510.26862305 1055.63198364 -510.8503418 1055.37698364 C-519.18396605 1050.82619907 -526.87698185 1042.17553997 -533.1394043 1035.12698364 C-533.1394043 1034.46698364 -533.1394043 1033.80698364 -533.1394043 1033.12698364 C-533.7994043 1033.12698364 -534.4594043 1033.12698364 -535.1394043 1033.12698364 C-536.68177168 1031.09332163 -538.11064871 1029.06576049 -539.5144043 1026.93948364 C-541.67343627 1023.71173084 -543.80553837 1020.53998816 -546.2487793 1017.51760864 C-549.49635756 1013.4111667 -551.72531783 1008.75599444 -554.1394043 1004.12698364 C-554.8509668 1002.78313599 -554.8509668 1002.78313599 -555.5769043 1001.41213989 C-560.31886059 992.22459957 -564.23715392 982.69290213 -568.1394043 973.12698364 C-568.60475586 971.99131958 -569.07010742 970.85565552 -569.54956055 969.68557739 C-572.95411588 961.11397988 -575.70914898 952.34974874 -578.40307617 943.53469849 C-578.88514203 941.95839426 -579.37068723 940.38314888 -579.86010742 938.80911255 C-582.32805678 930.86733402 -584.57891814 923.10777004 -585.68237305 914.83792114 C-586.10992888 911.99531339 -586.10992888 911.99531339 -587.09643555 908.77932739 C-588.17933519 904.98715073 -588.94926806 901.19163243 -589.6394043 897.31448364 C-590.44007933 892.90599005 -591.25741475 888.50733282 -592.2019043 884.12698364 C-594.765925 871.22211909 -595.58783992 858.10950575 -596.44213867 845.00418091 C-596.51883789 843.87036987 -596.59553711 842.73655884 -596.67456055 841.56838989 C-596.7403833 840.5443103 -596.80620605 839.52023071 -596.87402344 838.46511841 C-596.88866505 836.17010613 -596.88866505 836.17010613 -598.1394043 835.12698364 C-598.345193 833.54839073 -598.48771135 831.96148855 -598.60424805 830.37380981 C-598.68102783 829.35731857 -598.75780762 828.34082733 -598.83691406 827.29353333 C-598.95570923 825.62361076 -598.95570923 825.62361076 -599.0769043 823.91995239 C-599.16190186 822.77021439 -599.24689941 821.62047638 -599.33447266 820.43589783 C-599.51479306 817.98372047 -599.69286141 815.53137666 -599.86889648 813.07888794 C-600.13355014 809.39595048 -600.40535302 805.71359914 -600.6784668 802.03128052 C-601.53700627 790.32366261 -602.35404465 778.62330842 -602.79785156 766.89143372 C-602.61378072 763.20311188 -602.61378072 763.20311188 -604.1394043 760.12698364 C-604.28520014 758.44187679 -604.36670847 756.75111914 -604.4206543 755.06057739 C-604.45803711 754.0170813 -604.49541992 752.97358521 -604.53393555 751.89846802 C-604.56874023 750.79825317 -604.60354492 749.69803833 -604.6394043 748.56448364 C-604.70904465 746.41723946 -604.78189764 744.27009678 -604.8581543 742.12307739 C-604.88844727 741.16586792 -604.91874023 740.20865845 -604.94995117 739.22244263 C-605.13598634 736.18282937 -605.51378428 733.19618924 -605.90881348 730.1778717 C-606.27554685 726.91612391 -606.34377498 723.66073333 -606.4206543 720.38088989 C-606.45838679 718.95315478 -606.49614799 717.52542042 -606.53393555 716.09768677 C-606.58788095 713.87676945 -606.64018435 711.65582109 -606.69165039 709.43484497 C-606.74316715 707.27090468 -606.80041428 705.10717164 -606.8581543 702.94338989 C-606.88844727 701.65891968 -606.91874023 700.37444946 -606.94995117 699.05105591 C-606.80931593 696.23710232 -606.80931593 696.23710232 -608.1394043 695.12698364 C-608.23690159 693.69966378 -608.26495874 692.26753705 -608.26524544 690.83689117 C-608.26785318 689.90545021 -608.27046093 688.97400924 -608.2731477 688.01434278 C-608.27091698 686.97905455 -608.26868626 685.94376632 -608.26638794 684.87710571 C-608.26794793 683.78664837 -608.26950792 682.69619103 -608.27111518 681.57268953 C-608.27513033 677.8883002 -608.27193355 674.20395147 -608.26879883 670.51956177 C-608.27015264 667.89052811 -608.27193246 665.26149465 -608.27410889 662.63246155 C-608.27856726 656.21466609 -608.27758982 649.7968823 -608.27469625 643.37908638 C-608.27244247 638.16553964 -608.27212958 632.95199618 -608.27322006 627.7384491 C-608.2733733 626.99785186 -608.27352653 626.25725462 -608.2736844 625.49421504 C-608.27400411 623.9899433 -608.27432833 622.48567157 -608.274657 620.98139983 C-608.27751198 606.85913007 -608.27422447 592.73686679 -608.26885663 578.6145981 C-608.26438857 566.48379498 -608.2651645 554.35300143 -608.26977539 542.22219849 C-608.27512082 528.15219766 -608.27723729 514.08220253 -608.27416313 500.01220083 C-608.27384456 498.51330662 -608.27353019 497.0144124 -608.27322006 495.51551819 C-608.27306579 494.77793645 -608.27291151 494.04035471 -608.27275256 493.280422 C-608.27188731 488.0700999 -608.27335045 482.85978139 -608.27569962 477.64945984 C-608.27878888 470.64329426 -608.27660537 463.63714713 -608.27080536 456.63098335 C-608.26947696 454.05131116 -608.26987321 451.47163746 -608.27206802 448.89196587 C-608.27477643 445.38691008 -608.27140221 441.88191352 -608.26638794 438.37686157 C-608.26861866 437.34157334 -608.27084938 436.3062851 -608.2731477 435.2396245 C-608.27053995 434.30818353 -608.26793221 433.37674256 -608.26524544 432.41707611 C-608.26508309 431.60691528 -608.26492073 430.79675445 -608.26475346 429.96204329 C-608.1394043 428.12698364 -608.1394043 428.12698364 -607.1394043 427.12698364 C-606.99237374 424.85767308 -606.91177107 422.58401392 -606.8581543 420.31057739 C-606.83974487 419.62069229 -606.82133545 418.93080719 -606.80236816 418.22001648 C-606.74346247 416.00159474 -606.69081545 413.7830909 -606.6394043 411.56448364 C-606.58771059 409.37088309 -606.53449384 407.17737447 -606.47644043 404.9839325 C-606.42334776 402.97499345 -606.37595033 400.96590627 -606.32885742 398.95681763 C-606.19547887 396.26054268 -605.99034979 393.69869687 -605.64160156 391.03347778 C-605.20341561 387.6249151 -604.94809367 384.30817788 -604.82299805 380.87698364 C-604.76015625 379.22376099 -604.76015625 379.22376099 -604.69604492 377.53713989 C-604.63707031 375.84911255 -604.63707031 375.84911255 -604.5769043 374.12698364 C-604.5337207 372.97069458 -604.49053711 371.81440552 -604.44604492 370.62307739 C-604.34072513 367.7911451 -604.23859342 364.95913617 -604.1394043 362.12698364 C-603.4794043 362.12698364 -602.8194043 362.12698364 -602.1394043 362.12698364 C-602.16188232 360.93879028 -602.18436035 359.75059692 -602.20751953 358.52639771 C-602.38578238 344.46015945 -601.57714814 330.54616612 -600.48535156 316.52639771 C-600.19695008 312.81319753 -599.92228412 309.09914919 -599.64916992 305.38479614 C-599.4709215 303.02275738 -599.29191494 300.66077567 -599.11206055 298.29885864 C-599.02972672 297.18871399 -598.94739288 296.07856934 -598.86256409 294.93478394 C-598.78255661 293.92152039 -598.70254913 292.90825684 -598.62011719 291.86428833 C-598.55127823 290.97054504 -598.48243927 290.07680176 -598.41151428 289.15597534 C-598.1394043 287.12698364 -598.1394043 287.12698364 -597.1394043 286.12698364 C-596.92256333 284.1774855 -596.76779973 282.22101627 -596.6394043 280.26370239 C-596.5569043 279.06680786 -596.4744043 277.86991333 -596.3894043 276.63674927 C-596.3069043 275.37540161 -596.2244043 274.11405396 -596.1394043 272.81448364 C-595.97598961 270.33900641 -595.80945468 267.86373265 -595.6394043 265.38870239 C-595.5672168 264.28486206 -595.4950293 263.18102173 -595.4206543 262.04373169 C-595.18579175 259.60805215 -594.77137097 257.47718903 -594.1394043 255.12698364 C-593.84072703 251.72952973 -593.63268606 248.33163194 -593.4206543 244.92776489 C-593.1394043 242.12698364 -593.1394043 242.12698364 -592.1394043 241.12698364 C-591.86648828 239.67640609 -591.64868597 238.21535559 -591.45581055 236.75198364 C-591.27115234 235.39653442 -591.27115234 235.39653442 -591.08276367 234.01370239 C-590.95708008 233.06108521 -590.83139648 232.10846802 -590.7019043 231.12698364 C-589.47987727 221.88095903 -587.720728 213.09103354 -585.1394043 204.12698364 C-584.26172096 200.54682419 -583.45315894 196.95064185 -582.6394043 193.35549927 C-581.67870356 189.18620816 -580.53240446 185.17782811 -579.1394043 181.12698364 C-578.58323032 179.17272094 -578.04091836 177.21444515 -577.5144043 175.25198364 C-577.25401367 174.28518677 -576.99362305 173.31838989 -576.7253418 172.32229614 C-576.43530273 171.23561646 -576.43530273 171.23561646 -576.1394043 170.12698364 C-575.4794043 170.12698364 -574.8194043 170.12698364 -574.1394043 170.12698364 C-574.02983398 168.96553833 -573.92026367 167.80409302 -573.80737305 166.60745239 C-573.26148672 162.2737056 -572.04888929 158.48851233 -570.4519043 154.43948364 C-570.1842627 153.74524292 -569.91662109 153.0510022 -569.64086914 152.33572388 C-567.5420773 146.97071028 -565.23402862 141.72143538 -562.75268555 136.52151489 C-561.58808581 134.07106168 -560.46460547 131.61974102 -559.36987305 129.13870239 C-552.88345231 114.61234803 -544.61683561 101.14347267 -534.1394043 89.12698364 C-533.32084961 88.18725708 -532.50229492 87.24753052 -531.65893555 86.27932739 C-524.06624187 77.72347488 -515.70405519 68.48202014 -506.1394043 62.12698364 C-505.4794043 62.12698364 -504.8194043 62.12698364 -504.1394043 62.12698364 C-504.1394043 61.46698364 -504.1394043 60.80698364 -504.1394043 60.12698364 C-502.2409668 58.61917114 -502.2409668 58.61917114 -499.7644043 57.00198364 C-498.95229492 56.46315552 -498.14018555 55.92432739 -497.3034668 55.36917114 C-495.1394043 54.12698364 -495.1394043 54.12698364 -493.1394043 54.12698364 C-493.1394043 53.46698364 -493.1394043 52.80698364 -493.1394043 52.12698364 C-491.33520508 50.8142395 -491.33520508 50.8142395 -488.8347168 49.34182739 C-487.94139648 48.81137817 -487.04807617 48.28092896 -486.12768555 47.73440552 C-485.18280273 47.1833313 -484.23791992 46.63225708 -483.2644043 46.06448364 C-482.32725586 45.50954224 -481.39010742 44.95460083 -480.42456055 44.38284302 C-473.65899755 40.38678027 -473.65899755 40.38678027 -471.1394043 39.12698364 C-470.4794043 39.45698364 -469.8194043 39.78698364 -469.1394043 40.12698364 C-469.1394043 39.46698364 -469.1394043 38.80698364 -469.1394043 38.12698364 C-462.5144043 35.12698364 -462.5144043 35.12698364 -459.1394043 35.12698364 C-459.1394043 34.46698364 -459.1394043 33.80698364 -459.1394043 33.12698364 C-457.05831745 32.45333703 -454.97443719 31.78831566 -452.8894043 31.12698364 C-451.72924805 30.75573364 -450.5690918 30.38448364 -449.3737793 30.00198364 C-446.1394043 29.12698364 -446.1394043 29.12698364 -442.1394043 29.12698364 C-442.1394043 28.46698364 -442.1394043 27.80698364 -442.1394043 27.12698364 C-441.0978418 26.88463989 -440.0562793 26.64229614 -438.9831543 26.39260864 C-438.29890381 26.23260376 -437.61465332 26.07259888 -436.90966797 25.90774536 C-435.37368679 25.5486505 -433.83738102 25.19094171 -432.30078125 24.83450317 C-428.56630346 23.96158757 -424.84728257 23.06511456 -421.15112305 22.04104614 C-411.80329615 19.50118715 -402.70258045 18.30411499 -393.04956055 17.52151489 C-389.36804884 17.56647773 -389.36804884 17.56647773 -388.1394043 16.12698364 C-385.71822885 15.91439263 -383.31536651 15.75033765 -380.8894043 15.62698364 C-375.81783112 15.39466073 -375.81783112 15.39466073 -370.8066864 14.63272095 C-367.75993814 14.05503393 -364.82702172 13.88691161 -361.72851562 13.75393677 C-360.45402054 13.69717773 -359.17952545 13.6404187 -357.8664093 13.5819397 C-356.85311271 13.53951393 -356.85311271 13.53951393 -355.81934547 13.49623108 C-353.69690271 13.40720461 -351.57473053 13.31321843 -349.45256042 13.21792603 C-344.18636636 12.98240651 -338.91984019 12.75472916 -333.65325928 12.52804565 C-329.19335538 12.33592197 -324.7336376 12.14024659 -320.27411461 11.93946838 C-318.18140101 11.84672921 -316.08850661 11.75931813 -313.99555969 11.67202759 C-312.09800179 11.58688904 -312.09800179 11.58688904 -310.16210938 11.50003052 C-309.0446785 11.45197266 -307.92724762 11.40391479 -306.7759552 11.35440063 C-304.16259816 11.29220363 -304.16259816 11.29220363 -302.1394043 10.12698364 C-300.14099067 9.98435797 -298.13824272 9.90062336 -296.13549805 9.84573364 C-294.31115234 9.78965942 -294.31115234 9.78965942 -292.44995117 9.73245239 C-290.53279297 9.68024536 -290.53279297 9.68024536 -288.5769043 9.62698364 C-286.07550747 9.557393 -283.57419884 9.48454592 -281.07299805 9.40823364 C-279.95981201 9.37794067 -278.84662598 9.34764771 -277.69970703 9.31643677 C-275.12488525 9.17942369 -272.66373624 8.9603314 -270.11401367 8.64065552 C-264.30434288 7.96474683 -258.48406226 7.83796975 -252.64094734 7.681427 C-250.56646067 7.62576001 -248.49215388 7.56540399 -246.41783142 7.50393677 C-242.0126346 7.37421416 -237.60728703 7.25020777 -233.2019043 7.12698364 C-228.09361991 6.98397347 -222.98542668 6.83851486 -217.87737846 6.68728638 C-215.85143187 6.62848906 -213.82540159 6.57391503 -211.79933167 6.51956177 C-205.66197376 6.33940058 -199.60201007 6.0359039 -193.49961853 5.36108398 C-189.19638599 4.93426332 -184.88159446 4.8102285 -180.5612793 4.66213989 C-179.5211116 4.62458588 -178.48094391 4.58703186 -177.40925598 4.54833984 C-173.90277953 4.42419958 -170.39613055 4.3063442 -166.8894043 4.18948364 C-165.66228729 4.14751862 -164.43517029 4.10555359 -163.17086792 4.06231689 C-133.24903698 3.0493796 -103.31634835 2.46100886 -73.38345051 1.88354492 C-69.39569237 1.80628051 -65.40797713 1.72691747 -61.42026329 1.64740372 C-57.93169735 1.57912236 -54.44304953 1.5156885 -50.95436573 1.45373344 C-44.3214478 1.31099856 -37.70050799 1.12708848 -31.07603818 0.75439524 C-20.70901253 0.17287217 -10.38110718 -0.01548951 0 0 Z " fill="#D41E17" transform="translate(810.139404296875,437.8730163574219)"/>
<path d="M0 0 C2.2494987 1.12474935 4.49650312 2.25463517 6.734375 3.40234375 C13.28944604 6.77343716 13.28944604 6.77343716 20.125 9.5 C24.19299124 10.92632888 27.68138184 13.10222667 31.3125 15.40234375 C33.45463244 16.67579167 35.56945263 17.8034738 37.80078125 18.90234375 C42.74140418 21.33555127 47.49258836 24.07346103 52.26367188 26.8203125 C55.78759911 28.82817094 59.22288379 30.51010516 63 32 C65.82063322 33.40359442 68.59561041 34.89175417 71.375 36.375 C73.08310494 37.28037894 74.79144878 38.18530728 76.5 39.08984375 C77.3971875 39.56534668 78.294375 40.04084961 79.21875 40.53076172 C83.9277494 43.0183634 88.65170424 45.47718382 93.375 47.9375 C95.31254383 48.94783262 97.25004371 49.95824952 99.1875 50.96875 C100.1465625 51.46890625 101.105625 51.9690625 102.09375 52.484375 C103.0528125 52.98453125 104.011875 53.4846875 105 54 C105.96421875 54.50273438 106.9284375 55.00546875 107.921875 55.5234375 C110.74023187 56.99355338 113.55771918 58.46532327 116.375 59.9375 C117.21208496 60.37376709 118.04916992 60.81003418 118.91162109 61.25952148 C123.66331495 63.74447075 128.36319927 66.30010387 133.02172852 68.95605469 C135.58776376 70.31016634 138.21216966 71.21368888 141 72 C141 72.66 141 73.32 141 74 C142.2065625 74.37125 142.2065625 74.37125 143.4375 74.75 C147.74324143 76.26078647 151.85364007 78.10188856 156 80 C156 80.66 156 81.32 156 82 C156.5669458 82.12383057 157.1338916 82.24766113 157.71801758 82.37524414 C161.91920115 83.52543444 165.76226837 85.57541907 169.6875 87.4375 C171.00717773 88.04948242 171.00717773 88.04948242 172.35351562 88.67382812 C173.18947266 89.06892578 174.02542969 89.46402344 174.88671875 89.87109375 C175.65201904 90.23130615 176.41731934 90.59151855 177.20581055 90.96264648 C179 92 179 92 180 94 C182.441646 95.23596969 184.87931554 96.38308886 187.375 97.5 C196.22032023 101.56057645 204.79838361 106.03905342 213.38574219 110.61425781 C218.15972289 113.14480642 222.95655039 115.63159036 227.75 118.125 C234.28872982 121.52972164 240.81586966 124.95308963 247.3125 128.4375 C253.71632656 131.86710489 260.18256062 135.14346114 266.71484375 138.3203125 C271.68609022 140.86209131 276.52074864 143.64490826 281.3671875 146.41601562 C285.50127328 148.74404878 289.40437534 150.69643339 294 152 C294 152.66 294 153.32 294 154 C294.73347656 154.11085938 295.46695312 154.22171875 296.22265625 154.3359375 C299.13464946 155.03219467 300.9372198 156.00436777 303.4375 157.625 C307.90817517 160.39944841 312.47597231 162.79614419 317.19750977 165.11401367 C322.30591336 167.63122756 327.34369158 170.26991049 332.375 172.9375 C338.84965948 176.36575331 345.35814495 179.70526273 351.92553711 182.9519043 C358.1010392 186.01842971 364.19190417 189.24062755 370.26757812 192.5 C375.41594786 195.24105078 380.64007142 197.70028216 386 200 C386 200.66 386 201.32 386 202 C386.84304688 202.25910156 387.68609375 202.51820313 388.5546875 202.78515625 C392.22864604 204.08062236 395.65810367 205.67938895 399.125 207.4375 C399.79789063 207.77587891 400.47078125 208.11425781 401.1640625 208.46289062 C410.23510238 213.07235926 419.11596734 218.04249041 428 223 C428 223.66 428 224.32 428 225 C425.875 226.62109375 425.875 226.62109375 423 228.4375 C422.071875 229.03433594 421.14375 229.63117188 420.1875 230.24609375 C417.18420265 231.8986434 414.30806885 233.03390693 411.09814453 234.18432617 C407.38740034 235.6269136 403.93557485 237.54718694 400.4375 239.4375 C398.76201346 240.33128184 397.08621816 241.22448508 395.41015625 242.1171875 C394.09362061 242.82053223 394.09362061 242.82053223 392.75048828 243.53808594 C387.97450976 246.07656982 383.17347948 248.56689246 378.375 251.0625 C371.58851111 254.59617006 364.81557747 258.15292689 358.0625 261.75 C352.0053947 264.97436114 345.89437587 268.07274908 339.74536133 271.11767578 C334.44991914 273.7492703 329.24918498 276.53742382 324.0546875 279.36328125 C321.18501694 280.90086688 318.2931957 282.36956944 315.375 283.8125 C305.4809401 288.71378463 295.73426512 293.91579309 286.0078125 299.140625 C279.09979294 302.85130601 272.15212855 306.44817246 265.12475586 309.92797852 C260.16455758 312.39335629 255.26219218 314.95570345 250.375 317.5625 C245.32368545 320.25683836 240.2557314 322.89599817 235.125 325.4375 C224.98422636 330.46713744 214.98715361 335.78042494 205.015625 341.13671875 C198.10340382 344.84918795 191.1517818 348.44829104 184.12036133 351.93017578 C179.20325123 354.37416206 174.34403319 356.91452765 169.5 359.5 C164.16117851 362.34825764 158.79814909 365.12828012 153.375 367.8125 C143.84484133 372.5351992 134.43499076 377.48618478 125.01416016 382.42236328 C122.0151417 383.99207471 119.01388595 385.55741386 116.01171875 387.12109375 C107.34612227 391.6348126 98.68681248 396.15783361 90.0625 400.75 C84.95097787 403.46848743 79.81248496 406.11704551 74.625 408.6875 C67.61897147 412.16279551 60.65510052 415.71880608 53.70574951 419.30581665 C52.49681356 419.92930839 51.28723017 420.55154654 50.07696533 421.17245483 C48.35936536 422.05410141 46.64448732 422.94104444 44.9296875 423.828125 C43.93179199 424.3427832 42.93389648 424.85744141 41.90576172 425.38769531 C38.9090789 426.99617728 38.9090789 426.99617728 35.86669922 429.10864258 C33.55311124 430.63507471 31.79893545 431.61291174 29.203125 432.43359375 C24.41399166 434.11844822 20.14558668 436.54602663 15.75 439.0625 C14.18266917 439.94988584 12.61497348 440.83662763 11.046875 441.72265625 C10.36463867 442.11203369 9.68240234 442.50141113 8.97949219 442.90258789 C3.39243604 446 3.39243604 446 0 446 C0 298.82 0 151.64 0 0 Z " fill="#FEFEFE" transform="translate(836,759)"/>
<path d="M0 0 C4.98253475 1.31119335 8.92857136 3.64804333 13.2421875 6.3671875 C15.41142237 7.65152203 17.55163081 8.79476415 19.80859375 9.90625 C24.7465905 12.33810312 29.49514836 15.0749349 34.26367188 17.8203125 C37.78759911 19.82817094 41.22288379 21.51010516 45 23 C47.82063322 24.40359442 50.59561041 25.89175417 53.375 27.375 C55.08310494 28.28037894 56.79144878 29.18530728 58.5 30.08984375 C59.3971875 30.56534668 60.294375 31.04084961 61.21875 31.53076172 C65.9277494 34.0183634 70.65170424 36.47718382 75.375 38.9375 C77.31254383 39.94783262 79.25004371 40.95824952 81.1875 41.96875 C82.1465625 42.46890625 83.105625 42.9690625 84.09375 43.484375 C85.0528125 43.98453125 86.011875 44.4846875 87 45 C87.96421875 45.50273438 88.9284375 46.00546875 89.921875 46.5234375 C92.74023187 47.99355338 95.55771918 49.46532327 98.375 50.9375 C99.21208496 51.37376709 100.04916992 51.81003418 100.91162109 52.25952148 C105.66331495 54.74447075 110.36319927 57.30010387 115.02172852 59.95605469 C117.58776376 61.31016634 120.21216966 62.21368888 123 63 C123 63.66 123 64.32 123 65 C123.804375 65.2475 124.60875 65.495 125.4375 65.75 C129.74324143 67.26078647 133.85364007 69.10188856 138 71 C138 71.66 138 72.32 138 73 C138.5669458 73.12383057 139.1338916 73.24766113 139.71801758 73.37524414 C143.91920115 74.52543444 147.76226837 76.57541907 151.6875 78.4375 C153.00717773 79.04948242 153.00717773 79.04948242 154.35351562 79.67382812 C155.18947266 80.06892578 156.02542969 80.46402344 156.88671875 80.87109375 C157.65201904 81.23130615 158.41731934 81.59151855 159.20581055 81.96264648 C161 83 161 83 162 85 C164.441646 86.23596969 166.87931554 87.38308886 169.375 88.5 C178.22032023 92.56057645 186.79838361 97.03905342 195.38574219 101.61425781 C200.15972289 104.14480642 204.95655039 106.63159036 209.75 109.125 C216.28872982 112.52972164 222.81586966 115.95308963 229.3125 119.4375 C235.71632656 122.86710489 242.18256062 126.14346114 248.71484375 129.3203125 C253.68609022 131.86209131 258.52074864 134.64490826 263.3671875 137.41601562 C267.50127328 139.74404878 271.40437534 141.69643339 276 143 C276 143.66 276 144.32 276 145 C276.73347656 145.11085938 277.46695312 145.22171875 278.22265625 145.3359375 C281.13464946 146.03219467 282.9372198 147.00436777 285.4375 148.625 C289.90817517 151.39944841 294.47597231 153.79614419 299.19750977 156.11401367 C304.30591336 158.63122756 309.34369158 161.26991049 314.375 163.9375 C320.84965948 167.36575331 327.35814495 170.70526273 333.92553711 173.9519043 C340.1010392 177.01842971 346.19190417 180.24062755 352.26757812 183.5 C357.41594786 186.24105078 362.64007142 188.70028216 368 191 C368 191.66 368 192.32 368 193 C368.84304688 193.25910156 369.68609375 193.51820313 370.5546875 193.78515625 C374.22864604 195.08062236 377.65810367 196.67938895 381.125 198.4375 C381.79789063 198.77587891 382.47078125 199.11425781 383.1640625 199.46289062 C392.23510238 204.07235926 401.11596734 209.04249041 410 214 C410 214.66 410 215.32 410 216 C407.875 217.62109375 407.875 217.62109375 405 219.4375 C404.071875 220.03433594 403.14375 220.63117188 402.1875 221.24609375 C399.78977303 222.56543126 397.73560742 223.51884863 395.1953125 224.42578125 C390.51322574 226.10184387 386.2417394 228.38724599 381.875 230.75 C380.21026004 231.63919123 378.54488891 232.52720175 376.87890625 233.4140625 C376.0605127 233.85008789 375.24211914 234.28611328 374.39892578 234.73535156 C368.98335025 237.59029571 363.491432 240.2945963 358 243 C358 242.34 358 241.68 358 241 C357.32090576 240.76458496 356.64181152 240.52916992 355.94213867 240.28662109 C352.3299183 238.70696784 349.17684708 236.61642136 345.92578125 234.4140625 C345.24307663 233.95703949 344.56037201 233.50001648 343.85697937 233.02914429 C341.67254385 231.56542616 339.4924464 230.09539332 337.3125 228.625 C335.89807591 227.67534999 334.48336456 226.72612769 333.06835938 225.77734375 C330.1826304 223.84175441 327.29839302 221.90396902 324.41503906 219.96484375 C317.75961645 215.49187041 311.08357615 211.04982637 304.40939331 206.60491943 C300.09754729 203.73275844 295.78716455 200.85840248 291.4765625 197.984375 C289.67578752 196.78384476 287.87500625 195.58332396 286.07421875 194.3828125 C273.3828125 185.921875 260.69140625 177.4609375 248 169 C246.96681641 168.31123779 245.93363281 167.62247559 244.86914062 166.9128418 C242.9151773 165.61014416 240.96140895 164.30715401 239.0078125 163.00390625 C236.98336741 161.65515258 234.95729292 160.30884175 232.9296875 158.96484375 C231.92164063 158.29582031 230.91359375 157.62679687 229.875 156.9375 C228.98554687 156.34839844 228.09609375 155.75929688 227.1796875 155.15234375 C224.68274153 153.46215059 222.21605588 151.74359723 219.75390625 150.00390625 C212.74048711 145.08258794 205.60032454 140.35045207 198.46899414 135.60253906 C196.06997359 134.00497683 193.67260595 132.4049569 191.27539062 130.8046875 C183.9519627 125.92143817 176.61584451 121.07118128 169.17163086 116.37353516 C166.50312101 114.68572893 163.87160445 112.94715268 161.25 111.1875 C157.92293434 108.95793392 154.59544186 106.72934135 151.2578125 104.515625 C145.71470519 100.83653435 140.18053269 97.15697235 134.75 93.3125 C131.51343605 91.02568186 128.2316085 88.85659554 124.875 86.75 C120.2523224 83.83966636 115.74180953 80.79377892 111.25 77.6875 C104.21675686 72.82414016 97.12655595 68.05535673 90.00097656 63.32861328 C86.33026541 60.89132557 82.66563046 58.44491918 79 56 C77.47268118 54.98173345 75.94533766 53.96350393 74.41796875 52.9453125 C61.21484375 44.14322917 48.01171875 35.34114583 34.80859375 26.5390625 C33.9057666 25.93723145 33.00293945 25.33540039 32.07275391 24.71533203 C30.24280067 23.4952553 28.41304576 22.27488104 26.58349609 21.05419922 C22.78284557 18.51880292 18.9817039 15.98443363 15.16796875 13.46875 C14.12253906 12.7778125 13.07710937 12.086875 12 11.375 C11.13375 10.80523438 10.2675 10.23546875 9.375 9.6484375 C1.69681796 4.31917299 1.69681796 4.31917299 0 0 Z " fill="#E8DFDF" transform="translate(854,768)"/>
<path d="M0 0 C5.17779255 1.36257699 9.32141763 3.86736335 13.828125 6.66015625 C15.93676304 8.00546176 15.93676304 8.00546176 18 9 C18.625 12.0625 18.625 12.0625 19 15 C11.50354573 11.3932154 3.89946414 7.61323952 0 0 Z " fill="#E9E4E4" transform="translate(854,768)"/>
<path d="M0 0 C-0.2421875 1.86328125 -0.2421875 1.86328125 -1 4 C-5.7908383 7.2384422 -11.31811402 8.51643524 -17 9 C-15.40434605 5.8086921 -12.15338879 4.88215291 -9.0625 3.375 C-8.41603516 3.05015625 -7.76957031 2.7253125 -7.10351562 2.390625 C-2.26702009 0 -2.26702009 0 0 0 Z " fill="#D63935" transform="translate(1037,1102)"/>
<path d="M0 0 C6.625 -0.25 6.625 -0.25 10 2 C10 2.66 10 3.32 10 4 C12.97 4.495 12.97 4.495 16 5 C15.67 5.99 15.34 6.98 15 8 C11.02990501 6.82701739 8.25102569 5.51692311 5 3 C3.35202764 2.28837557 1.68834592 1.60968047 0 1 C0 0.67 0 0.34 0 0 Z " fill="#DC3228" transform="translate(893,788)"/>
<path d="M0 0 C4.30764815 1.56641751 8.06171464 3.68336156 12 6 C11.67 6.66 11.34 7.32 11 8 C6.76570244 6.68938409 2.92592596 5.05643741 -1 3 C-0.67 2.01 -0.34 1.02 0 0 Z " fill="#DA2B22" transform="translate(978,830)"/>
<path d="M0 0 C0 0.99 0 1.98 0 3 C-3.96 4.98 -3.96 4.98 -8 7 C-8 6.34 -8 5.68 -8 5 C-9.32 5.33 -10.64 5.66 -12 6 C-10.46717427 2.93434853 -8.07069703 2.35819292 -5 1 C-2.125 0.3125 -2.125 0.3125 0 0 Z " fill="#D52F2A" transform="translate(1065,1088)"/>
<path d="M0 0 C1.258125 0.12375 2.51625 0.2475 3.8125 0.375 C4.87404297 0.47941406 4.87404297 0.47941406 5.95703125 0.5859375 C8 1 8 1 11 3 C11 3.99 11 4.98 11 6 C12.32 6.33 13.64 6.66 15 7 C14.01 7.495 14.01 7.495 13 8 C10.21484375 6.85546875 10.21484375 6.85546875 6.9375 5.1875 C5.85339844 4.64480469 4.76929688 4.10210938 3.65234375 3.54296875 C1 2 1 2 0 0 Z " fill="#D93F39" transform="translate(1150,922)"/>
<path d="M0 0 C0 0.66 0 1.32 0 2 C-5.29230769 5.07692308 -5.29230769 5.07692308 -8.875 4.6875 C-9.57625 4.460625 -10.2775 4.23375 -11 4 C-7.04396675 0.96704118 -5.03239385 -0.13243142 0 0 Z " fill="#D32C28" transform="translate(994,1126)"/>
<path d="M0 0 C0.66 0.33 1.32 0.66 2 1 C-2.625 5.875 -2.625 5.875 -6 7 C-7.66621616 7.03874921 -9.33394172 7.0450286 -11 7 C-9.60623819 4.21247638 -7.82491442 3.69568885 -5.0625 2.3125 C-4.16660156 1.85488281 -3.27070312 1.39726563 -2.34765625 0.92578125 C-1.57292969 0.62027344 -0.79820313 0.31476563 0 0 Z " fill="#D9433F" transform="translate(1085,1076)"/>
<path d="M0 0 C0.66 0.33 1.32 0.66 2 1 C0.9024777 3.99324263 0.32317108 4.84610901 -2.625 6.25 C-3.40875 6.4975 -4.1925 6.745 -5 7 C-5.33 6.67 -5.66 6.34 -6 6 C-7.67542976 6.28604898 -9.34385343 6.61781233 -11 7 C-9.60623819 4.21247638 -7.82491442 3.69568885 -5.0625 2.3125 C-4.16660156 1.85488281 -3.27070312 1.39726563 -2.34765625 0.92578125 C-1.57292969 0.62027344 -0.79820313 0.31476563 0 0 Z " fill="#DB4A46" transform="translate(1106,1065)"/>
<path d="M0 0 C4.21878192 -0.19622241 7.17010894 0.19769832 11 2 C10.67 3.32 10.34 4.64 10 6 C9.01 5.67 8.02 5.34 7 5 C7 4.34 7 3.68 7 3 C6.030625 2.87625 5.06125 2.7525 4.0625 2.625 C3.051875 2.41875 2.04125 2.2125 1 2 C0.67 1.34 0.34 0.68 0 0 Z " fill="#D82F28" transform="translate(1123,908)"/>
<path d="M0 0 C0 2 0 2 -1.5625 4.125 C-4.80653244 6.62040957 -7.0098359 6.3069357 -11 6 C-9.73083275 3.46166551 -8.58375191 3.10599099 -6.0625 1.875 C-5.35222656 1.52179688 -4.64195312 1.16859375 -3.91015625 0.8046875 C-2 0 -2 0 0 0 Z " fill="#D53A37" transform="translate(850,1199)"/>
<path d="M0 0 C0 0.99 0 1.98 0 3 C-1.65 3.33 -3.3 3.66 -5 4 C-4.67 4.66 -4.34 5.32 -4 6 C-6.64 6 -9.28 6 -12 6 C-10.52436775 3.0487355 -8.49920648 2.93076085 -5.4375 1.875 C-4.42558594 1.52179687 -3.41367188 1.16859375 -2.37109375 0.8046875 C-1.58863281 0.53914062 -0.80617188 0.27359375 0 0 Z " fill="#D93C38" transform="translate(1194,1021)"/>
<path d="M0 0 C0 1.32 0 2.64 0 4 C-3.21451269 5.60725635 -6.43612536 5.05748185 -10 5 C-3.63636364 0 -3.63636364 0 0 0 Z " fill="#D63D3A" transform="translate(958,1143)"/>
<path d="M0 0 C9.33041575 1.17286652 9.33041575 1.17286652 12.125 4.625 C12.558125 5.800625 12.558125 5.800625 13 7 C12.43796875 6.71382812 11.8759375 6.42765625 11.296875 6.1328125 C8.97129077 4.98584069 6.62229799 3.92160206 4.25 2.875 C3.45078125 2.52179687 2.6515625 2.16859375 1.828125 1.8046875 C1.22484375 1.53914062 0.6215625 1.27359375 0 1 C0 0.67 0 0.34 0 0 Z " fill="#DA3932" transform="translate(1096,894)"/>
<path d="M0 0 C0 1.32 0 2.64 0 4 C-3.465 5.485 -3.465 5.485 -7 7 C-7.33 6.01 -7.66 5.02 -8 4 C-2.25 0 -2.25 0 0 0 Z " fill="#D3332F" transform="translate(877,1185)"/>
<path d="M0 0 C0.66 0.33 1.32 0.66 2 1 C1 4 1 4 -0.8125 5.1875 C-3 6 -3 6 -7 6 C-7.66 5.67 -8.32 5.34 -9 5 C-7.54735962 4.1361871 -6.0876837 3.28419546 -4.625 2.4375 C-3.40683594 1.72400391 -3.40683594 1.72400391 -2.1640625 0.99609375 C-1.44992187 0.66738281 -0.73578125 0.33867188 0 0 Z " fill="#D6403D" transform="translate(927,1158)"/>
<path d="M0 0 C6.52307692 -0.36923077 6.52307692 -0.36923077 8.9375 1.5 C9.288125 1.995 9.63875 2.49 10 3 C9.67 3.66 9.34 4.32 9 5 C5.22454612 3.90931332 2.52956528 3.0916909 0 0 Z " fill="#D73730" transform="translate(1246,972)"/>
<path d="M0 0 C3.63 0.66 7.26 1.32 11 2 C11.33 3.32 11.66 4.64 12 6 C7.76570244 4.68938409 3.92592596 3.05643741 0 1 C0 0.67 0 0.34 0 0 Z " fill="#DD514C" transform="translate(1015,852)"/>
<path d="M0 0 C0.66 0.33 1.32 0.66 2 1 C1.34 2.32 0.68 3.64 0 5 C-2.64 5 -5.28 5 -8 5 C-6.35197949 1.70395897 -3.32254422 1.22409524 0 0 Z " fill="#D93F3B" transform="translate(1157,1039)"/>
<path d="M0 0 C0.66 0.33 1.32 0.66 2 1 C1.34 2.32 0.68 3.64 0 5 C-2.31 5 -4.62 5 -7 5 C-4.88437775 2.67281553 -2.94982021 1.14186589 0 0 Z " fill="#DB4844" transform="translate(1166,1034)"/>
<path d="M0 0 C0 0.66 0 1.32 0 2 C-0.99 2.33 -1.98 2.66 -3 3 C-3.99 4.485 -3.99 4.485 -5 6 C-6.32 5.34 -7.64 4.68 -9 4 C-2.25 0 -2.25 0 0 0 Z " fill="#D74342" transform="translate(902,1172)"/>
<path d="M0 0 C0 1.32 0 2.64 0 4 C-1.8125 4.625 -1.8125 4.625 -4 5 C-4.99 4.34 -5.98 3.68 -7 3 C-2.25 0 -2.25 0 0 0 Z " fill="#D73934" transform="translate(1124,1057)"/>
<path d="M0 0 C2.64 0.33 5.28 0.66 8 1 C8.33 2.32 8.66 3.64 9 5 C5.22454612 3.90931332 2.52956528 3.0916909 0 0 Z " fill="#DB4943" transform="translate(1087,889)"/>
<path d="M0 0 C0.66 0.33 1.32 0.66 2 1 C2 1.99 2 2.98 2 4 C-0.375 4.625 -0.375 4.625 -3 5 C-3.66 4.34 -4.32 3.68 -5 3 C-2.625 1.4375 -2.625 1.4375 0 0 Z " fill="#D53734" transform="translate(946,1148)"/>
<path d="M0 0 C-0.3125 1.9375 -0.3125 1.9375 -1 4 C-1.99 4.33 -2.98 4.66 -4 5 C-4.99 4.34 -5.98 3.68 -7 3 C-2.25 0 -2.25 0 0 0 Z " fill="#D63935" transform="translate(1016,1113)"/>
<path d="M0 0 C0.94875 0.350625 1.8975 0.70125 2.875 1.0625 C2.545 1.7225 2.215 2.3825 1.875 3.0625 C-2.875 2.3125 -2.875 2.3125 -5.125 0.0625 C-3.125 -0.9375 -3.125 -0.9375 0 0 Z " fill="#D8332D" transform="translate(1185.125,937.9375)"/>
<path d="M0 0 C4.95 0.99 4.95 0.99 10 2 C9.67 2.99 9.34 3.98 9 5 C5.9168649 3.80100302 2.93720508 2.52299523 0 1 C0 0.67 0 0.34 0 0 Z " fill="#DD423C" transform="translate(920,802)"/>
<path d="M0 0 C2.31 0 4.62 0 7 0 C7.33 1.32 7.66 2.64 8 4 C2.25 2.25 2.25 2.25 0 0 Z " fill="#DD3D36" transform="translate(908,796)"/>
<path d="M0 0 C3.77545388 1.09068668 6.47043472 1.9083091 9 5 C5.625 4.75 5.625 4.75 2 4 C0.5625 1.9375 0.5625 1.9375 0 0 Z " fill="#E3A09E" transform="translate(854,768)"/>
<path d="M0 0 C0.556875 0.226875 1.11375 0.45375 1.6875 0.6875 C-5.0625 4.6875 -5.0625 4.6875 -7.3125 4.6875 C-7.3125 4.0275 -7.3125 3.3675 -7.3125 2.6875 C-3.15982824 -0.42700382 -3.15982824 -0.42700382 0 0 Z " fill="#CE0F08" transform="translate(1047.3125,1098.3125)"/>
<path d="M0 0 C0 0.66 0 1.32 0 2 C-5.75 5 -5.75 5 -8 5 C-8 4.34 -8 3.68 -8 3 C-7.01 3 -6.02 3 -5 3 C-5 2.34 -5 1.68 -5 1 C-3 0 -3 0 0 0 Z " fill="#D3150C" transform="translate(1256,990)"/>
<path d="M0 0 C1.98 0 3.96 0 6 0 C6.66 1.32 7.32 2.64 8 4 C2.25 2.25 2.25 2.25 0 0 Z " fill="#DA3C36" transform="translate(1142,918)"/>
<path d="M0 0 C2.875 -0.125 2.875 -0.125 6 0 C8 2 8 2 8 4 C2.25 2.25 2.25 2.25 0 0 Z " fill="#DB3830" transform="translate(1002,845)"/>
<path d="M0 0 C2.475 0.99 2.475 0.99 5 2 C5 2.99 5 3.98 5 5 C3.02 4.34 1.04 3.68 -1 3 C-0.67 2.01 -0.34 1.02 0 0 Z " fill="#DC362E" transform="translate(978,830)"/>
<path d="M0 0 C2.31 0 4.62 0 7 0 C7.33 1.32 7.66 2.64 8 4 C2.25 2.25 2.25 2.25 0 0 Z " fill="#DC423B" transform="translate(929,807)"/>
<path d="M0 0 C2.97 0.33 5.94 0.66 9 1 C8.67 1.99 8.34 2.98 8 4 C2.25 2.25 2.25 2.25 0 0 Z " fill="#DD413A" transform="translate(900,792)"/>
<path d="" fill="#C81613" transform="translate(0,0)"/>
</svg>
