<?xml version="1.0" encoding="UTF-8"?>
<svg version="1.1" xmlns="http://www.w3.org/2000/svg" width="2000" height="2000">
<path d="M0 0 C393.03 0 786.06 0 1191 0 C1191 268.95 1191 537.9 1191 815 C1189.35 815.33 1187.7 815.66 1186 816 C1186 816.66 1186 817.32 1186 818 C1185.34 818 1184.68 818 1184 818 C1184 818.66 1184 819.32 1184 820 C1183.34 820 1182.68 820 1182 820 C1181.773125 820.53625 1181.54625 821.0725 1181.3125 821.625 C1178.74055212 826.27900093 1175.0161826 830.51930841 1171 834 C1170.01 834 1169.02 834 1168 834 C1167.91363281 834.5878125 1167.82726563 835.175625 1167.73828125 835.78125 C1166.79637733 838.61194539 1165.48426739 839.62508785 1163.1875 841.5 C1160.87737444 843.4216608 1158.72573394 845.28148358 1156.625 847.4375 C1155 849 1155 849 1153 849 C1153 849.66 1153 850.32 1153 851 C1152.34 851 1151.68 851 1151 851 C1151 851.66 1151 852.32 1151 853 C1150.34 853 1149.68 853 1149 853 C1148.34 854.32 1147.68 855.64 1147 857 C1146.34 857 1145.68 857 1145 857 C1145 857.66 1145 858.32 1145 859 C1143.35511706 860.68816933 1141.68662458 862.35353315 1140 864 C1139.34 864.99 1138.68 865.98 1138 867 C1137.34 867 1136.68 867 1136 867 C1136 867.66 1136 868.32 1136 869 C1134.02 869.99 1134.02 869.99 1132 871 C1132 871.66 1132 872.32 1132 873 C1130.28340568 874.35803676 1128.46815118 875.49830258 1126.62890625 876.68359375 C1124.70046284 878.00013286 1124.70046284 878.00013286 1124 881 C1118.53488372 886 1118.53488372 886 1116 886 C1116 886.66 1116 887.32 1116 888 C1115.34 888 1114.68 888 1114 888 C1114 888.66 1114 889.32 1114 890 C1113.34 890 1112.68 890 1112 890 C1112 890.66 1112 891.32 1112 892 C1111.34 892 1110.68 892 1110 892 C1110 892.66 1110 893.32 1110 894 C1109.34 894 1108.68 894 1108 894 C1108 894.66 1108 895.32 1108 896 C1107.34 896 1106.68 896 1106 896 C1105.773125 896.53625 1105.54625 897.0725 1105.3125 897.625 C1102.10761341 903.42431859 1097.95726967 907.00165561 1092.57421875 910.703125 C1092.05472656 911.13109375 1091.53523438 911.5590625 1091 912 C1091 912.66 1091 913.32 1091 914 C1090.01 914 1089.02 914 1088 914 C1088 914.66 1088 915.32 1088 916 C1087.34 916 1086.68 916 1086 916 C1085.67 916.99 1085.34 917.98 1085 919 C1084.34 919 1083.68 919 1083 919 C1082.7525 919.61875 1082.505 920.2375 1082.25 920.875 C1080.79371361 923.35068687 1079.62187494 923.95125002 1077 925 C1077 925.66 1077 926.32 1077 927 C1076.34 927 1075.68 927 1075 927 C1075 927.66 1075 928.32 1075 929 C1074.34 929 1073.68 929 1073 929 C1073 929.66 1073 930.32 1073 931 C1072.34 931 1071.68 931 1071 931 C1071 931.66 1071 932.32 1071 933 C1070.34 933 1069.68 933 1069 933 C1069 933.66 1069 934.32 1069 935 C1067.3563186 936.68933922 1065.6857124 938.35259924 1064 940 C1062.65263027 941.65533995 1061.31665664 943.32012773 1060 945 C1059.34 945.66 1058.68 946.32 1058 947 C1057.01 947 1056.02 947 1055 947 C1054.773125 947.556875 1054.54625 948.11375 1054.3125 948.6875 C1052.6296426 951.65253447 1050.46378626 953.65353689 1048 956 C1047.278125 956.763125 1046.55625 957.52625 1045.8125 958.3125 C1044 960 1044 960 1042 960 C1042 960.66 1042 961.32 1042 962 C1041.34 962 1040.68 962 1040 962 C1040 962.66 1040 963.32 1040 964 C1039.34 964 1038.68 964 1038 964 C1038 964.66 1038 965.32 1038 966 C1037.34 966 1036.68 966 1036 966 C1036 966.66 1036 967.32 1036 968 C1035.34 968 1034.68 968 1034 968 C1034 968.66 1034 969.32 1034 970 C1031.26044438 973.04395069 1028.81936528 975.44396229 1025 977 C1025 977.99 1025 978.98 1025 980 C1024.34 980 1023.68 980 1023 980 C1023 980.66 1023 981.32 1023 982 C1020.99534779 983.6466786 1018.88036013 985.08308324 1016.75 986.5625 C1016.1725 987.036875 1015.595 987.51125 1015 988 C1015 988.66 1015 989.32 1015 990 C1014.01 990 1013.02 990 1012 990 C1012 990.66 1012 991.32 1012 992 C1010.625 993.625 1010.625 993.625 1009 995 C1008.34 995 1007.68 995 1007 995 C1006.7525 995.61875 1006.505 996.2375 1006.25 996.875 C1004.79371361 999.35068687 1003.62187494 999.95125002 1001 1001 C1001 1001.66 1001 1002.32 1001 1003 C1000.34 1003 999.68 1003 999 1003 C999 1003.66 999 1004.32 999 1005 C998.34 1005 997.68 1005 997 1005 C997 1005.66 997 1006.32 997 1007 C996.34 1007 995.68 1007 995 1007 C995 1007.66 995 1008.32 995 1009 C993.52307016 1010.2471852 992.04202596 1011.49035235 990.52734375 1012.69140625 C988.70225929 1014.25509754 987.42509913 1016.07611618 986 1018 C985.34 1018 984.68 1018 984 1018 C984 1018.66 984 1019.32 984 1020 C982 1022 982 1022 979 1023 C979 1023.66 979 1024.32 979 1025 C977.52307016 1026.2471852 976.04202596 1027.49035235 974.52734375 1028.69140625 C972.70225929 1030.25509754 971.42509913 1032.07611618 970 1034 C969.34 1034 968.68 1034 968 1034 C968 1034.66 968 1035.32 968 1036 C967.34 1036 966.68 1036 966 1036 C966 1036.66 966 1037.32 966 1038 C965.34 1038 964.68 1038 964 1038 C964 1038.66 964 1039.32 964 1040 C963.34 1040 962.68 1040 962 1040 C962 1040.66 962 1041.32 962 1042 C961.34 1042 960.68 1042 960 1042 C960 1042.66 960 1043.32 960 1044 C958.56870823 1045.23157664 957.1318894 1046.45767164 955.66015625 1047.640625 C951.20878642 1051.24903124 951.20878642 1051.24903124 948.11328125 1055.95703125 C946.75466278 1058.45021533 945.25918199 1059.51541285 942.9375 1061.125 C939.95372478 1063.11074647 939.95372478 1063.11074647 938 1066 C937.34 1066 936.68 1066 936 1066 C936 1066.66 936 1067.32 936 1068 C934.625 1069.625 934.625 1069.625 933 1071 C932.34 1071 931.68 1071 931 1071 C931 1071.66 931 1072.32 931 1073 C930.34 1073 929.68 1073 929 1073 C929 1073.66 929 1074.32 929 1075 C928.34 1075 927.68 1075 927 1075 C927 1075.66 927 1076.32 927 1077 C926.34 1077 925.68 1077 925 1077 C925 1077.66 925 1078.32 925 1079 C924.34 1079 923.68 1079 923 1079 C923 1079.66 923 1080.32 923 1081 C922.34 1081 921.68 1081 921 1081 C921 1081.66 921 1082.32 921 1083 C919.35546875 1084.5859375 919.35546875 1084.5859375 917.1875 1086.375 C914.93749143 1088.23566282 913.09649715 1089.86872703 911.36328125 1092.2265625 C910.91339844 1092.81179688 910.46351563 1093.39703125 910 1094 C909.34 1094 908.68 1094 908 1094 C908 1094.66 908 1095.32 908 1096 C906.4609375 1097.48046875 906.4609375 1097.48046875 904.375 1099.1875 C900.91212733 1102.1100663 898.02489092 1105.15830902 895.2265625 1108.71484375 C894.82179688 1109.13894531 894.41703125 1109.56304688 894 1110 C893.34 1110 892.68 1110 892 1110 C892 1110.66 892 1111.32 892 1112 C891.34 1112 890.68 1112 890 1112 C890 1112.66 890 1113.32 890 1114 C889.34 1114 888.68 1114 888 1114 C888 1114.66 888 1115.32 888 1116 C887.34 1116 886.68 1116 886 1116 C886 1116.66 886 1117.32 886 1118 C884.28515625 1119.65625 884.28515625 1119.65625 882.0625 1121.5 C879.07954821 1123.88926999 879.07954821 1123.88926999 877 1127 C876.34 1127 875.68 1127 875 1127 C875 1127.66 875 1128.32 875 1129 C874.34 1129 873.68 1129 873 1129 C873 1129.66 873 1130.32 873 1131 C871 1133 871 1133 868.625 1134.8125 C865.90461377 1136.92923723 865.90461377 1136.92923723 863.8125 1139.75 C863.214375 1140.4925 862.61625 1141.235 862 1142 C861.34 1142 860.68 1142 860 1142 C860 1142.66 860 1143.32 860 1144 C858.625 1145.625 858.625 1145.625 857 1147 C856.34 1147 855.68 1147 855 1147 C855 1147.66 855 1148.32 855 1149 C854.34 1149 853.68 1149 853 1149 C853 1149.66 853 1150.32 853 1151 C852.34 1151 851.68 1151 851 1151 C851 1151.66 851 1152.32 851 1153 C850.34 1153 849.68 1153 849 1153 C849 1153.66 849 1154.32 849 1155 C847.42578125 1156.515625 847.42578125 1156.515625 845.3125 1158.25 C842.64650867 1160.50075728 840.28989909 1162.70049545 838.125 1165.4375 C837.42375 1166.283125 836.7225 1167.12875 836 1168 C835.34 1168 834.68 1168 834 1168 C834 1168.66 834 1169.32 834 1170 C832.56517103 1171.23462027 831.12450352 1172.46342675 829.6484375 1173.6484375 C826.13789032 1176.52675343 823.14579697 1179.78330553 820.3125 1183.3125 C819.549375 1184.199375 818.78625 1185.08625 818 1186 C817.34 1186 816.68 1186 816 1186 C816 1186.66 816 1187.32 816 1188 C815.34 1188 814.68 1188 814 1188 C814 1188.66 814 1189.32 814 1190 C813.34 1190 812.68 1190 812 1190 C812 1190.66 812 1191.32 812 1192 C811.34 1192 810.68 1192 810 1192 C810 1192.66 810 1193.32 810 1194 C808.28515625 1195.65625 808.28515625 1195.65625 806.0625 1197.5 C803.07954821 1199.88926999 803.07954821 1199.88926999 801 1203 C800.34 1203 799.68 1203 799 1203 C799 1203.66 799 1204.32 799 1205 C796.98563317 1207.23818537 794.88068385 1209.09247002 792.5 1210.9375 C789.8967558 1213.08517647 788.07185338 1215.34543785 786 1218 C783.375 1220.8125 783.375 1220.8125 781 1223 C780.34 1223 779.68 1223 779 1223 C779 1223.66 779 1224.32 779 1225 C778.34 1225 777.68 1225 777 1225 C777 1225.66 777 1226.32 777 1227 C776.34 1227 775.68 1227 775 1227 C775 1227.66 775 1228.32 775 1229 C774.34 1229 773.68 1229 773 1229 C773 1229.66 773 1230.32 773 1231 C771.42578125 1232.515625 771.42578125 1232.515625 769.3125 1234.25 C766.64650867 1236.50075728 764.28989909 1238.70049545 762.125 1241.4375 C761.42375 1242.283125 760.7225 1243.12875 760 1244 C759.34 1244 758.68 1244 758 1244 C758 1244.66 758 1245.32 758 1246 C756.56517103 1247.23462027 755.12450352 1248.46342675 753.6484375 1249.6484375 C750.13789032 1252.52675343 747.14579697 1255.78330553 744.3125 1259.3125 C743.549375 1260.199375 742.78625 1261.08625 742 1262 C741.34 1262 740.68 1262 740 1262 C740 1262.66 740 1263.32 740 1264 C739.34 1264 738.68 1264 738 1264 C738 1264.66 738 1265.32 738 1266 C737.34 1266 736.68 1266 736 1266 C736 1266.66 736 1267.32 736 1268 C735.34 1268 734.68 1268 734 1268 C734 1268.66 734 1269.32 734 1270 C731.52552742 1273.07818323 728.69339312 1275.56902679 724.82104731 1276.55454946 C722.30748625 1276.7590617 719.8543703 1276.77910247 717.33282471 1276.73257446 C715.89982674 1276.74215622 715.89982674 1276.74215622 714.43787932 1276.75193155 C711.24602582 1276.76612628 708.05599662 1276.73770096 704.86425781 1276.70947266 C702.57255218 1276.71109474 700.28084711 1276.71540945 697.989151 1276.72221375 C693.05955558 1276.73122842 688.13047864 1276.7215098 683.20093536 1276.69731522 C675.41149242 1276.65949389 667.62245039 1276.66507009 659.83294678 1276.67684937 C648.91802772 1276.68900891 638.00328009 1276.6831525 627.08837891 1276.66015625 C626.39631111 1276.65870461 625.70424331 1276.65725298 624.99120376 1276.65575735 C622.18668962 1276.64984349 619.38217558 1276.64389041 616.57766165 1276.63788126 C608.84849183 1276.6215633 601.11931781 1276.61000942 593.39013672 1276.60058594 C592.69770202 1276.59973498 592.00526733 1276.59888402 591.29184976 1276.59800728 C579.75530004 1276.58440099 568.21880317 1276.58674983 556.68225169 1276.59863508 C548.9330391 1276.60518241 541.18422477 1276.59080686 533.43507338 1276.56018472 C528.62428963 1276.54487257 523.8136068 1276.54575198 519.00280571 1276.55092812 C516.76581585 1276.5498629 514.52881738 1276.54186121 512.29187965 1276.5265522 C509.24734713 1276.50659252 506.20379761 1276.51090999 503.15924072 1276.52139282 C502.26616313 1276.50953969 501.37308554 1276.49768655 500.45294499 1276.48547423 C498.22627644 1276.50668553 496.17992883 1276.54623724 494 1277 C492.01575387 1278.88502807 492.01575387 1278.88502807 491 1281 C490.34 1281 489.68 1281 489 1281 C489 1281.66 489 1282.32 489 1283 C487.71484375 1284.2265625 487.71484375 1284.2265625 485.9375 1285.625 C482.40668432 1288.52684447 479.55203783 1291.72350473 476.67578125 1295.265625 C474.90640727 1297.0968652 473.32716666 1298.00626435 471 1299 C471 1299.66 471 1300.32 471 1301 C470.34 1301 469.68 1301 469 1301 C469 1301.66 469 1302.32 469 1303 C468.34 1303 467.68 1303 467 1303 C467 1303.66 467 1304.32 467 1305 C465.64453125 1306.296875 465.64453125 1306.296875 463.8125 1307.75 C460.39132703 1310.57917926 457.7877712 1313.5519672 455 1317 C452.3125 1319.875 452.3125 1319.875 450 1322 C449.34 1322 448.68 1322 448 1322 C448 1322.66 448 1323.32 448 1324 C446.34211215 1325.34423339 444.67423683 1326.67618483 443 1328 C442.443125 1328.7425 441.88625 1329.485 441.3125 1330.25 C440.879375 1330.8275 440.44625 1331.405 440 1332 C439.34 1332 438.68 1332 438 1332 C438 1332.66 438 1333.32 438 1334 C437.34 1334 436.68 1334 436 1334 C436 1334.66 436 1335.32 436 1336 C435.34 1336 434.68 1336 434 1336 C433.67 1337.32 433.34 1338.64 433 1340 C432.01 1340 431.02 1340 430 1340 C430 1340.66 430 1341.32 430 1342 C428.125 1344.125 428.125 1344.125 426 1346 C425.34 1346 424.68 1346 424 1346 C424 1346.66 424 1347.32 424 1348 C422.125 1350.125 422.125 1350.125 420 1352 C419.34 1352 418.68 1352 418 1352 C418 1352.66 418 1353.32 418 1354 C417.34 1354 416.68 1354 416 1354 C415.67 1354.99 415.34 1355.98 415 1357 C414.34 1357 413.68 1357 413 1357 C413 1357.66 413 1358.32 413 1359 C410.4314298 1361.79520874 407.70822188 1364.25985159 404.75 1366.625 C401.79262734 1368.76996366 401.79262734 1368.76996366 401 1372 C397.55555556 1375 397.55555556 1375 395 1375 C395 1375.66 395 1376.32 395 1377 C394.34 1377 393.68 1377 393 1377 C393 1377.66 393 1378.32 393 1379 C392.34 1379 391.68 1379 391 1379 C390.938125 1379.598125 390.87625 1380.19625 390.8125 1380.8125 C389.6717356 1383.88378877 387.79687484 1384.3218751 385 1386 C383.40802553 1387.67554268 381.95366906 1389.43124194 380.484375 1391.21484375 C378.45266957 1393.65823686 376.3434413 1395.85184547 374 1398 C373.34 1398 372.68 1398 372 1398 C372 1398.66 372 1399.32 372 1400 C370.34211215 1401.34423339 368.67423683 1402.67618483 367 1404 C366.443125 1404.7425 365.88625 1405.485 365.3125 1406.25 C364.879375 1406.8275 364.44625 1407.405 364 1408 C363.34 1408 362.68 1408 362 1408 C362 1408.66 362 1409.32 362 1410 C361.34 1410 360.68 1410 360 1410 C360 1410.66 360 1411.32 360 1412 C359.34 1412 358.68 1412 358 1412 C357.87625 1412.61875 357.7525 1413.2375 357.625 1413.875 C357 1416 357 1416 355 1418 C354.01 1418 353.02 1418 352 1418 C352 1418.99 352 1419.98 352 1421 C332.73776265 1421.07000495 313.47555103 1421.12294632 294.21321297 1421.15543652 C285.26986571 1421.1709216 276.32659738 1421.19204234 267.38330078 1421.22631836 C259.59055145 1421.25617062 251.79785927 1421.27556305 244.00505435 1421.28226548 C239.8767832 1421.28618486 235.74867556 1421.29542968 231.6204567 1421.31719017 C227.73811963 1421.33748958 223.85601409 1421.34384719 219.973629 1421.33932304 C218.54573053 1421.3401512 217.11782464 1421.34615586 215.68997192 1421.35761642 C213.74642478 1421.37245639 211.80275456 1421.36718589 209.85916138 1421.36076355 C208.76960207 1421.36352893 207.68004276 1421.36629431 206.55746651 1421.36914349 C205.71350256 1421.24732614 204.86953861 1421.12550879 204 1421 C201.70827174 1417.56240761 201.75230339 1416.3293458 201.75949097 1412.28633118 C201.75674164 1411.09581146 201.75399231 1409.90529175 201.75115967 1408.67869568 C201.75835022 1407.37102737 201.76554077 1406.06335907 201.77294922 1404.71606445 C201.77351331 1403.32647713 201.77319682 1401.93688922 201.77206421 1400.54730225 C201.7714896 1396.77275482 201.78326141 1392.9983341 201.79721212 1389.22381616 C201.80970142 1385.28001053 201.81088856 1381.33620211 201.81326294 1377.39237976 C201.81948301 1369.9232241 201.83590094 1362.45412688 201.85596192 1354.98499697 C201.87830454 1346.48207442 201.88931022 1337.9791491 201.89935279 1329.47620451 C201.92026672 1311.98410252 201.95545293 1294.49205744 202 1277 C201.1822589 1276.99739563 201.1822589 1276.99739563 200.34799778 1276.99473864 C168.06501278 1276.89179679 135.78204975 1276.78370302 103.49910492 1276.66888306 C99.62619378 1276.65511284 95.75328249 1276.64138584 91.88037109 1276.62768555 C91.1093171 1276.62495724 90.33826311 1276.62222894 89.54384385 1276.61941796 C77.04540766 1276.57529653 64.5469624 1276.53467891 52.04851033 1276.49534739 C39.2318861 1276.45493695 26.41527876 1276.41078154 13.59867942 1276.36312145 C5.6848629 1276.33381184 -2.22895232 1276.30745249 -10.14279081 1276.28482103 C-16.20261659 1276.26717929 -22.26241115 1276.24433696 -28.32221222 1276.21950912 C-30.81437978 1276.21012376 -33.30655445 1276.20245386 -35.79873276 1276.19658089 C-39.18746205 1276.1883449 -42.57611233 1276.17407537 -45.96481323 1276.15821838 C-46.96285221 1276.15724028 -47.96089119 1276.15626217 -48.98917377 1276.15525442 C-49.89187193 1276.14977998 -50.79457008 1276.14430554 -51.72462273 1276.1386652 C-52.50760605 1276.13600716 -53.29058937 1276.13334911 -54.09729946 1276.13061053 C-56 1276 -56 1276 -58 1275 C-58.02996254 1188.00310566 -58.0597235 1101.00620988 -58.08468628 976.49986267 C-58.08496518 975.01306144 -58.08524408 973.52626021 -58.08552299 972.03945898 C-58.09136826 940.83164193 -58.0968017 909.62382482 -58.10175936 878.41600762 C-58.10425016 862.73946812 -58.10682011 847.06292864 -58.10946488 831.38638917 C-58.10986338 829.02163092 -58.11025962 826.65687267 -58.11065576 824.29211442 C-58.11677628 787.87483635 -58.12459495 751.45755962 -58.1373291 715.0402832 C-58.1376029 714.25718007 -58.1378767 713.47407694 -58.13815879 712.66724341 C-58.14258358 700.04116849 -58.14715078 687.41509362 -58.15173688 674.78901876 C-58.16494286 638.42544698 -58.17709709 602.06187622 -58.18227959 565.69830227 C-58.18238666 564.95063342 -58.18249373 564.20296457 -58.18260404 563.43263909 C-58.18493548 547.02013458 -58.18672523 530.60763007 -58.18800197 514.19512545 C-58.18852522 507.59144774 -58.18912645 500.98777003 -58.18975449 494.38409233 C-58.18982134 493.66134521 -58.18988819 492.93859809 -58.18995707 492.19394954 C-58.19215051 468.90071248 -58.20069452 445.60748305 -58.21256442 422.31424907 C-58.22482241 398.20085756 -58.23003038 374.08747526 -58.22700275 349.97408057 C-58.22547817 336.06536644 -58.22956765 322.15667996 -58.24159509 308.24797081 C-58.24907588 298.96532694 -58.24934072 289.68270125 -58.24366363 280.40005614 C-58.24063442 275.10559834 -58.24081324 269.81119295 -58.24976636 264.51674069 C-58.25784648 259.70210627 -58.25675241 254.88756529 -58.24827995 250.07293235 C-58.24684918 248.34015284 -58.2487863 246.60736651 -58.25447049 244.87459574 C-58.30682966 227.83570196 -58.30682966 227.83570196 -56 221 C-55.01 220.67 -54.02 220.34 -53 220 C-53.01160156 219.36191406 -53.02320313 218.72382812 -53.03515625 218.06640625 C-53.04417969 217.24011719 -53.05320312 216.41382813 -53.0625 215.5625 C-53.07990234 214.32693359 -53.07990234 214.32693359 -53.09765625 213.06640625 C-53 211 -53 211 -52 210 C-51.63021574 208.36197128 -51.30331217 206.71412956 -51 205.0625 C-50.1070615 200.21412301 -50.1070615 200.21412301 -49 198 C-48.73044167 195.66810655 -48.55492623 193.33678493 -48.37890625 190.99609375 C-48.25386719 190.33738281 -48.12882812 189.67867187 -48 189 C-47.34 188.67 -46.68 188.34 -46 188 C-46.33 184.37 -46.66 180.74 -47 177 C-46.34 177 -45.68 177 -45 177 C-44.67 177.99 -44.34 178.98 -44 180 C-43.80664062 178.74703125 -43.61328125 177.4940625 -43.4140625 176.203125 C-43.15138801 174.5520282 -42.88834802 172.90098951 -42.625 171.25 C-42.49867188 170.425 -42.37234375 169.6 -42.2421875 168.75 C-42.04882812 167.55117188 -42.04882812 167.55117188 -41.8515625 166.328125 C-41.73635254 165.5949707 -41.62114258 164.86181641 -41.50244141 164.10644531 C-40.96327449 161.84603125 -40.059506 160.05944138 -39 158 C-38.54935368 155.41467299 -38.54935368 155.41467299 -38.375 152.75 C-38.30023438 151.85796875 -38.22546875 150.9659375 -38.1484375 150.046875 C-38.07496094 149.03367187 -38.07496094 149.03367187 -38 148 C-37.67 148 -37.34 148 -37 148 C-36.60167969 146.24623047 -36.60167969 146.24623047 -36.1953125 144.45703125 C-35.83875149 142.90880583 -35.48196898 141.36063141 -35.125 139.8125 C-34.95097656 139.04357422 -34.77695312 138.27464844 -34.59765625 137.48242188 C-33.67103177 133.48420886 -32.5742945 129.80002121 -31 126 C-30.6186926 123.67402489 -30.27539746 121.34087842 -30 119 C-29.34 119 -28.68 119 -28 119 C-28.020625 117.700625 -28.04125 116.40125 -28.0625 115.0625 C-28.08399454 113.70834367 -28.07148199 112.35243917 -28 111 C-27.67 110.67 -27.34 110.34 -27 110 C-26.76712992 108.31816052 -26.58735834 106.6287584 -26.4375 104.9375 C-26.35371094 104.01839844 -26.26992188 103.09929687 -26.18359375 102.15234375 C-26.09271484 101.08693359 -26.09271484 101.08693359 -26 100 C-25.34 100 -24.68 100 -24 100 C-24.04125 98.948125 -24.0825 97.89625 -24.125 96.8125 C-24.00852125 93.25989827 -23.52791932 91.15133359 -22 88 C-21.34 88 -20.68 88 -20 88 C-20 85.03 -20 82.06 -20 79 C-19.34 79 -18.68 79 -18 79 C-18.061875 77.7625 -18.12375 76.525 -18.1875 75.25 C-18.20651051 69.28070076 -16.77755025 63.67342463 -15 58 C-14.67 57.67 -14.34 57.34 -14 57 C-13.76807135 55.48530552 -13.58784762 53.96245438 -13.4375 52.4375 C-13.35371094 51.61121094 -13.26992188 50.78492188 -13.18359375 49.93359375 C-13.09271484 48.97646484 -13.09271484 48.97646484 -13 48 C-12.34 48 -11.68 48 -11 48 C-10.80664062 46.81921875 -10.61328125 45.6384375 -10.4140625 44.421875 C-10.15137724 42.86452669 -9.88833782 41.30723809 -9.625 39.75 C-9.43550781 38.58404297 -9.43550781 38.58404297 -9.2421875 37.39453125 C-8.58471869 33.54833871 -7.85374934 30.46033209 -6 27 C-5.55188863 24.64435404 -5.55188863 24.64435404 -5.375 22.25 C-5.30023438 21.45078125 -5.22546875 20.6515625 -5.1484375 19.828125 C-5.09945312 19.22484375 -5.05046875 18.6215625 -5 18 C-4.34 18 -3.68 18 -3 18 C-2.90912109 16.93458984 -2.90912109 16.93458984 -2.81640625 15.84765625 C-2.73261719 14.92855469 -2.64882813 14.00945312 -2.5625 13.0625 C-2.48128906 12.14597656 -2.40007812 11.22945313 -2.31640625 10.28515625 C-2 8 -2 8 -1 7 C-0.67 4.69 -0.34 2.38 0 0 Z M120 119 C120 394.55 120 670.1 120 954 C206.13 954.33 292.26 954.66 381 955 C381 1010.77 381 1066.54 381 1124 C381.66 1123.67 382.32 1123.34 383 1123 C383 1122.34 383 1121.68 383 1121 C383.66 1121 384.32 1121 385 1121 C385 1120.34 385 1119.68 385 1119 C385.66 1119 386.32 1119 387 1119 C387 1118.34 387 1117.68 387 1117 C387.66 1117 388.32 1117 389 1117 C389 1116.34 389 1115.68 389 1115 C389.66 1115 390.32 1115 391 1115 C391 1114.34 391 1113.68 391 1113 C391.66 1113 392.32 1113 393 1113 C395.66666667 1110.66666667 395.66666667 1110.66666667 398 1108 C398 1107.34 398 1106.68 398 1106 C398.66 1106 399.32 1106 400 1106 C400 1105.34 400 1104.68 400 1104 C401.32 1103.34 402.64 1102.68 404 1102 C404 1101.34 404 1100.68 404 1100 C404.66 1100 405.32 1100 406 1100 C406 1099.34 406 1098.68 406 1098 C406.66 1098 407.32 1098 408 1098 C408 1097.34 408 1096.68 408 1096 C408.639375 1095.7525 409.27875 1095.505 409.9375 1095.25 C412.19895007 1094.20311706 412.19895007 1094.20311706 412.5625 1091.9375 C412.706875 1091.298125 412.85125 1090.65875 413 1090 C413.99 1089.67 414.98 1089.34 416 1089 C416.66 1088.67 417.32 1088.34 418 1088 C418 1087.34 418 1086.68 418 1086 C418.66 1086 419.32 1086 420 1086 C420 1085.34 420 1084.68 420 1084 C421.32 1083.34 422.64 1082.68 424 1082 C424 1081.34 424 1080.68 424 1080 C424.66 1080 425.32 1080 426 1080 C426 1079.34 426 1078.68 426 1078 C426.66 1078 427.32 1078 428 1078 C429.73693158 1076.24478052 429.73693158 1076.24478052 431.5 1074.0625 C434.79758308 1070.10120846 434.79758308 1070.10120846 437 1069 C437 1068.34 437 1067.68 437 1067 C437.66 1067 438.32 1067 439 1067 C439 1066.34 439 1065.68 439 1065 C439.66 1065 440.32 1065 441 1065 C441 1064.34 441 1063.68 441 1063 C441.61875 1062.7525 442.2375 1062.505 442.875 1062.25 C445.35068687 1060.79371361 445.95125002 1059.62187494 447 1057 C447.66 1057 448.32 1057 449 1057 C449 1056.34 449 1055.68 449 1055 C449.66 1055 450.32 1055 451 1055 C451 1054.34 451 1053.68 451 1053 C451.66 1052.67 452.32 1052.34 453 1052 C455.13344768 1050.6083124 455.13344768 1050.6083124 457 1049 C457 1048.34 457 1047.68 457 1047 C457.66 1047 458.32 1047 459 1047 C459 1046.34 459 1045.68 459 1045 C459.66 1045 460.32 1045 461 1045 C461 1044.34 461 1043.68 461 1043 C461.66 1043 462.32 1043 463 1043 C463 1042.34 463 1041.68 463 1041 C463.66 1041 464.32 1041 465 1041 C465 1040.34 465 1039.68 465 1039 C465.66 1039 466.32 1039 467 1039 C467 1038.34 467 1037.68 467 1037 C467.66 1037 468.32 1037 469 1037 C471.66666667 1034.66666667 471.66666667 1034.66666667 474 1032 C474 1031.34 474 1030.68 474 1030 C474.66 1030 475.32 1030 476 1030 C476 1029.34 476 1028.68 476 1028 C477.32 1027.34 478.64 1026.68 480 1026 C480 1025.34 480 1024.68 480 1024 C481.32 1023.34 482.64 1022.68 484 1022 C484 1021.34 484 1020.68 484 1020 C484.99 1019.67 485.98 1019.34 487 1019 C487.33 1018.175 487.66 1017.35 488 1016.5 C488.33 1015.675 488.66 1014.85 489 1014 C489.99 1013.67 490.98 1013.34 492 1013 C492.66 1012.67 493.32 1012.34 494 1012 C494 1011.34 494 1010.68 494 1010 C494.61875 1009.7525 495.2375 1009.505 495.875 1009.25 C498.35068687 1007.79371361 498.95125002 1006.62187494 500 1004 C500.66 1004 501.32 1004 502 1004 C502 1003.34 502 1002.68 502 1002 C502.66 1002 503.32 1002 504 1002 C505.73693158 1000.24478052 505.73693158 1000.24478052 507.5 998.0625 C510.79758308 994.10120846 510.79758308 994.10120846 513 993 C513 992.34 513 991.68 513 991 C513.66 991 514.32 991 515 991 C515 990.34 515 989.68 515 989 C515.66 989 516.32 989 517 989 C517 988.34 517 987.68 517 987 C517.61875 986.7525 518.2375 986.505 518.875 986.25 C521.35068687 984.79371361 521.95125002 983.62187494 523 981 C523.66 981 524.32 981 525 981 C525 980.34 525 979.68 525 979 C525.66 979 526.32 979 527 979 C527 978.34 527 977.68 527 977 C527.66 977 528.32 977 529 977 C529 976.34 529 975.68 529 975 C529.61875 974.7525 530.2375 974.505 530.875 974.25 C533.35068687 972.79371361 533.95125002 971.62187494 535 969 C535.66 969 536.32 969 537 969 C537 968.34 537 967.68 537 967 C537.66 967 538.32 967 539 967 C539 966.34 539 965.68 539 965 C539.66 965 540.32 965 541 965 C541 964.34 541 963.68 541 963 C541.66 963 542.32 963 543 963 C544.68732277 961.01739574 546.35366057 959.0167658 548 957 C548.66 956.67 549.32 956.34 550 956 C550 955.34 550 954.68 550 954 C550.67770738 954.0018986 551.35541476 954.0037972 552.05365872 954.00575334 C592.19448694 954.11757392 632.3352951 954.20339742 672.47624744 954.25532665 C677.29292174 954.2615804 682.10959571 954.26805199 686.92626953 954.2746582 C687.88520763 954.27596976 688.84414573 954.27728131 689.83214256 954.2786326 C705.37178563 954.30040622 720.91133648 954.3398385 736.45092478 954.38576398 C752.38863324 954.43247423 768.32629331 954.46028388 784.26406741 954.47044247 C794.1034821 954.47731293 803.94263616 954.49903468 813.78197065 954.53958233 C820.52350873 954.5659537 827.26491152 954.57401376 834.00649747 954.56750689 C837.89973421 954.5642952 841.79251466 954.56931694 845.68567085 954.59602737 C849.90160873 954.62474203 854.11656768 954.61497735 858.33258057 954.60127258 C860.18859512 954.62311889 860.18859512 954.62311889 862.08210492 954.64540654 C868.44394799 954.79181174 868.44394799 954.79181174 873.63546371 951.62648296 C874.31090918 950.3263739 874.31090918 950.3263739 875 949 C877.33832768 946.54475594 879.57297673 944.31161157 882.3125 942.3125 C882.869375 941.879375 883.42625 941.44625 884 941 C884 940.34 884 939.68 884 939 C884.66 939 885.32 939 886 939 C886 938.01 886 937.02 886 936 C886.66 936 887.32 936 888 936 C888 935.34 888 934.68 888 934 C888.556875 933.773125 889.11375 933.54625 889.6875 933.3125 C892.66159588 931.62449964 894.72008865 929.53323483 897 927 C897 926.34 897 925.68 897 925 C897.5775 924.7525 898.155 924.505 898.75 924.25 C901.32939979 922.81700012 903.06121592 921.21575324 905 919 C905 918.34 905 917.68 905 917 C905.66 917 906.32 917 907 917 C907 916.34 907 915.68 907 915 C907.99 915 908.98 915 910 915 C910 914.34 910 913.68 910 913 C910.66 913 911.32 913 912 913 C913.74275776 911.35412025 913.74275776 911.35412025 915.5 909.25 C916.41265625 908.20585938 916.41265625 908.20585938 917.34375 907.140625 C918.87976963 905.15539208 919.9723966 903.28127955 921 901 C921.66 901 922.32 901 923 901 C923 900.34 923 899.68 923 899 C923.804375 898.7525 924.60875 898.505 925.4375 898.25 C926.7059375 897.63125 926.7059375 897.63125 928 897 C928.3721042 895.67696283 928.70630173 894.34262065 929 893 C930.31403276 892.29605388 931.6520257 891.63654342 933 891 C935.75041666 888.58333229 935.75041666 888.58333229 938 886 C938 885.34 938 884.68 938 884 C938.66 884 939.32 884 940 884 C940 883.34 940 882.68 940 882 C941.65 881.34 943.3 880.68 945 880 C945 879.34 945 878.68 945 878 C945.66 878 946.32 878 947 878 C950.54757898 874.7480526 953.61045313 871.16409382 956.66796875 867.453125 C958 866 958 866 960 865 C960 864.34 960 863.68 960 863 C960.66 863 961.32 863 962 863 C962 862.01 962 861.02 962 860 C962.66 860 963.32 860 964 860 C964 859.34 964 858.68 964 858 C964.556875 857.773125 965.11375 857.54625 965.6875 857.3125 C968.66159588 855.62449964 970.72008865 853.53323483 973 851 C973 850.34 973 849.68 973 849 C974.65 848.34 976.3 847.68 978 847 C978 846.34 978 845.68 978 845 C978.66 845 979.32 845 980 845 C980.33 843.68 980.66 842.36 981 841 C981.66 841 982.32 841 983 841 C983 840.34 983 839.68 983 839 C983.99 839 984.98 839 986 839 C986 838.34 986 837.68 986 837 C986.66 837 987.32 837 988 837 C989.74275776 835.35412025 989.74275776 835.35412025 991.5 833.25 C992.41265625 832.20585938 992.41265625 832.20585938 993.34375 831.140625 C994.88119314 829.15355227 995.88499373 827.23488156 997 825 C998.32407669 824.31513275 999.65909241 823.65129797 1001 823 C1002.68816933 821.35511706 1004.35353315 819.68662458 1006 818 C1006.928125 817.278125 1007.85625 816.55625 1008.8125 815.8125 C1009.534375 815.214375 1010.25625 814.61625 1011 814 C1011 813.34 1011 812.68 1011 812 C1011.66 812 1012.32 812 1013 812 C1013.33 810.68 1013.66 809.36 1014 808 C1014.66 808 1015.32 808 1016 808 C1016 807.34 1016 806.68 1016 806 C1017.65 805.34 1019.3 804.68 1021 804 C1021 803.34 1021 802.68 1021 802 C1021.66 802 1022.32 802 1023 802 C1026.54757898 798.7480526 1029.61045313 795.16409382 1032.66796875 791.453125 C1034 790 1034 790 1036 789 C1036 788.34 1036 787.68 1036 787 C1036.66 787 1037.32 787 1038 787 C1038 786.01 1038 785.02 1038 784 C1038.66 784 1039.32 784 1040 784 C1040 783.34 1040 782.68 1040 782 C1040.7425 781.79375 1041.485 781.5875 1042.25 781.375 C1045.79496959 779.60251521 1046.94798396 777.32568116 1049 774 C1049.66 773.67 1050.32 773.34 1051 773 C1051 772.34 1051 771.68 1051 771 C1051.99 771 1052.98 771 1054 771 C1054 770.34 1054 769.68 1054 769 C1054.66 769 1055.32 769 1056 769 C1056.061875 768.38125 1056.12375 767.7625 1056.1875 767.125 C1056.455625 766.42375 1056.72375 765.7225 1057 765 C1057.70125 764.7525 1058.4025 764.505 1059.125 764.25 C1062.96782602 762.57920608 1064.83487346 759.98296004 1067.44921875 756.77734375 C1069 755 1069 755 1071 754 C1071.33 544.45 1071.66 334.9 1072 119 C757.84 119 443.68 119 120 119 Z " fill="#6338A9" transform="translate(452,304)"/>
<path d="M0 0 C1.01244781 -0.00137466 2.02489563 -0.00274933 3.06802368 -0.00416565 C4.18292175 -0.00057037 5.29781982 0.0030249 6.44650269 0.00672913 C8.20258347 0.00651009 8.20258347 0.00651009 9.99414062 0.00628662 C13.208813 0.00686491 16.42344214 0.01188858 19.63810587 0.01886058 C22.99601969 0.02510157 26.35393431 0.02569851 29.71185303 0.02688599 C36.07250238 0.0299971 42.4331346 0.03820753 48.79377639 0.04823548 C56.03431141 0.05940343 63.27484724 0.06490879 70.51538873 0.06993091 C85.41154434 0.08039032 100.30768391 0.09798552 115.2038269 0.12025452 C117.23517364 3.49249721 117.45429146 6.06926465 117.45550919 9.97644138 C117.46072468 11.18084356 117.46594018 12.38524573 117.47131371 13.62614495 C117.46698952 14.96431574 117.4624762 16.30248593 117.45779419 17.64065552 C117.46009799 19.06090261 117.46327397 20.48114852 117.46724868 21.90139192 C117.47561635 25.80873639 117.4714625 29.71598346 117.46527624 33.62332833 C117.46076085 37.83535882 117.46773094 42.04737228 117.47323608 46.25939941 C117.48214127 54.51230213 117.48020314 62.76516852 117.4744108 71.01807267 C117.46989905 77.72323758 117.4692793 84.42839229 117.47145844 91.13355827 C117.4717649 92.08687441 117.47207137 93.04019055 117.47238712 94.02239506 C117.47302655 95.95885973 117.47367498 97.8953244 117.4743323 99.83178907 C117.48003881 118.00057513 117.47347251 136.16934103 117.46273157 154.33812379 C117.45379433 169.93909478 117.4553489 185.54003602 117.46456909 201.14100647 C117.47526358 219.24512057 117.47949098 237.34921698 117.47334456 255.4533338 C117.47270744 257.38247804 117.4720787 259.31162228 117.47145844 261.24076653 C117.47099561 262.66464429 117.47099561 262.66464429 117.47052343 264.11728727 C117.46879413 270.81750513 117.47171662 277.5177118 117.47641754 284.21792793 C117.4820172 292.37870338 117.4805292 300.53944034 117.46985605 308.70021135 C117.46458719 312.86660559 117.46256318 317.03293557 117.46915436 321.19932938 C117.47509083 325.00939266 117.47187705 328.8193318 117.46119925 332.62938374 C117.45895542 334.01154134 117.46012338 335.39370932 117.46495083 336.77586032 C117.47098817 338.64720272 117.46363032 340.51857427 117.45550919 342.38990879 C117.45518448 343.43159169 117.45485978 344.47327459 117.45452523 345.54652363 C117.2038269 348.12025452 117.2038269 348.12025452 115.2038269 351.12025452 C109.68710171 352.67098922 103.77509732 352.23454349 98.08956909 352.18959045 C96.97999847 352.18480179 95.87042786 352.18001312 94.72723389 352.17507935 C91.06833072 352.15742784 87.40954696 352.13168081 83.7507019 352.10462952 C81.2081606 352.08793607 78.6656191 352.0712739 76.12307739 352.05464172 C71.47978307 352.02285613 66.83652879 351.98814241 62.1932838 351.94999003 C55.35740659 351.89382416 48.52161429 351.85086135 41.68558002 351.819309 C35.75983974 351.79110211 29.83429315 351.74656981 23.90869904 351.69600677 C21.38724267 351.6767594 18.86574338 351.66249026 16.34423065 351.65320587 C12.82937743 351.6389562 9.31517644 351.60610538 5.80050659 351.5684967 C4.75113922 351.56836075 3.70177185 351.56822479 2.62060547 351.56808472 C1.19066757 351.54710976 1.19066757 351.54710976 -0.26815796 351.52571106 C-1.09919666 351.51980328 -1.93023537 351.51389549 -2.78645706 351.50780869 C-3.44966335 351.37991581 -4.11286964 351.25202293 -4.7961731 351.12025452 C-7.09867931 347.66649519 -7.04520267 346.39975346 -7.04226875 342.33188343 C-7.04625085 341.11717202 -7.05023295 339.90246061 -7.05433571 338.65093976 C-7.04862928 337.29596876 -7.04273808 335.94099853 -7.03668213 334.58602905 C-7.0375538 333.15213339 -7.03930407 331.71823803 -7.04186046 330.28434438 C-7.04634555 326.33473578 -7.03831443 322.38523506 -7.02830434 318.43564022 C-7.01968881 314.18002944 -7.02258865 309.92442503 -7.02410889 305.66880798 C-7.02515894 298.2925503 -7.01886976 290.91632792 -7.00763321 283.54007912 C-6.99139749 272.87519089 -6.98617218 262.21031979 -6.98365723 251.54542055 C-6.97927709 234.24345122 -6.96595936 216.94150073 -6.947052 199.63954163 C-6.92870144 182.82964675 -6.91454091 166.01975699 -6.90603638 149.20985413 C-6.90524821 147.65630518 -6.90524821 147.65630518 -6.90444411 146.07137141 C-6.90183409 140.87571062 -6.89930666 135.6800498 -6.89682031 130.48438895 C-6.87607789 87.36299776 -6.8408437 44.24162711 -6.7961731 1.12025452 C-4.33891072 -0.10837667 -2.74794048 -0.00286841 0 0 Z " fill="#6338AA" transform="translate(1209.7961730957031,649.8797454833984)"/>
<path d="M0 0 C15.36801449 -0.02332953 30.73602816 -0.04097944 46.10405636 -0.05181217 C53.23921741 -0.05697501 60.37436748 -0.06401748 67.50952148 -0.07543945 C74.38889737 -0.08644675 81.26826181 -0.09227617 88.14764595 -0.09487724 C90.77881615 -0.09673206 93.40998569 -0.10035373 96.04115105 -0.10573006 C99.7122625 -0.11293635 103.38332603 -0.11399112 107.05444336 -0.11352539 C108.70413116 -0.1189183 108.70413116 -0.1189183 110.387146 -0.12442017 C111.87851326 -0.12235817 111.87851326 -0.12235817 113.40000916 -0.12025452 C114.26925994 -0.12117631 115.13851072 -0.1220981 116.03410244 -0.12304783 C118 0 118 0 119 1 C119.09758686 2.860937 119.1237136 4.72563371 119.12304783 6.58912754 C119.12503888 7.81030704 119.12702993 9.03148654 119.12908131 10.28967148 C119.12622772 11.66231719 119.12328211 13.0349627 119.12025452 14.40760803 C119.12069009 15.85215141 119.12156474 17.29669471 119.12284368 18.74123758 C119.12509135 22.72953906 119.12106367 26.71781394 119.11606562 30.70611203 C119.11176518 34.99993144 119.11320725 39.29374923 119.1139679 43.58757019 C119.11449339 51.03315146 119.11134394 58.47872399 119.10573006 65.92430305 C119.09761849 76.68948901 119.09500019 87.45467073 119.09374207 98.21985941 C119.091551 115.68376609 119.08488946 133.14766812 119.07543945 150.61157227 C119.06626673 167.58064755 119.05918522 184.54972157 119.05493164 201.51879883 C119.05466892 202.56398456 119.05440619 203.60917029 119.05413551 204.68602831 C119.05283051 209.92918261 119.0515668 215.17233691 119.05032361 220.41549122 C119.03994931 263.94366404 119.02232953 307.47183178 119 351 C103.94468549 351.17730805 88.88927644 351.34297536 73.83368301 351.49477577 C66.84315039 351.56553051 59.85269723 351.64009761 52.86230469 351.72363281 C46.11915031 351.80420282 39.37596288 351.87415747 32.63262177 351.93757248 C30.05692486 351.96354263 27.4812616 351.99310017 24.90564728 352.02626419 C21.30463371 352.07202517 17.70371276 352.10515442 14.10253906 352.13525391 C13.0322345 352.1517952 11.96192993 352.16833649 10.85919189 352.18537903 C9.3868811 352.19387627 9.3868811 352.19387627 7.88482666 352.20254517 C7.03308994 352.2117631 6.18135323 352.22098103 5.3038063 352.23047829 C2.78944774 351.97893585 1.16907684 351.26371655 -1 350 C-1.02286747 305.70090157 -1.04049879 261.40180376 -1.05106533 217.1027006 C-1.0523161 211.87787461 -1.05361042 206.65304863 -1.05493164 201.42822266 C-1.05519395 200.38801334 -1.05545626 199.34780402 -1.05572652 198.2760732 C-1.06008291 181.41272153 -1.0679703 164.54937326 -1.0771528 147.68602361 C-1.08649018 130.39456441 -1.09205579 113.103107 -1.09408849 95.81164539 C-1.09546354 85.13396592 -1.09981317 74.45629603 -1.10791647 63.77861951 C-1.11318497 56.46571707 -1.11480405 49.15281962 -1.11350138 41.83991541 C-1.11285816 37.61495512 -1.11387366 33.39001165 -1.11920547 29.16505432 C-1.12404461 25.30249129 -1.12433523 21.43995649 -1.12089889 17.57739221 C-1.12047371 16.17494272 -1.12176512 14.77249152 -1.12488318 13.37004544 C-1.12885654 11.47368123 -1.12615237 9.57730646 -1.12304783 7.68094063 C-1.12342755 6.62455867 -1.12380727 5.56817671 -1.1241985 4.47978318 C-1 2 -1 2 0 0 Z " fill="#6338A9" transform="translate(888,650)"/>
<path d="M0 0 C0.33 0 0.66 0 1 0 C1 273.9 1 547.8 1 830 C0.67 830 0.34 830 0 830 C0 556.1 0 282.2 0 0 Z " fill="#6437A7" transform="translate(574,425)"/>
<path d="M0 0 C0.33 0 0.66 0 1 0 C1 1.65 1 3.3 1 5 C0.67 5 0.34 5 0 5 C0 3.35 0 1.7 0 0 Z " fill="#6438A9" transform="translate(445,324)"/>
<path d="" fill="#683AA5" transform="translate(0,0)"/>
<path d="" fill="#663CA6" transform="translate(0,0)"/>
<path d="" fill="#663CA6" transform="translate(0,0)"/>
<path d="" fill="#6134AD" transform="translate(0,0)"/>
<path d="" fill="#6437A9" transform="translate(0,0)"/>
<path d="" fill="#6437A9" transform="translate(0,0)"/>
<path d="" fill="#6439AB" transform="translate(0,0)"/>
<path d="" fill="#6437AA" transform="translate(0,0)"/>
<path d="" fill="#6438AA" transform="translate(0,0)"/>
<path d="" fill="#6637A8" transform="translate(0,0)"/>
</svg>
